ISO-10303-21;
HEADER;
/* Generated by software containing ST-Developer
 * from STEP Tools, Inc. (www.steptools.com) 
 */

FILE_DESCRIPTION(
/* description */ (''),
/* implementation_level */ '2;1');

FILE_NAME(
/* name */ '250Hz.stp',
/* time_stamp */ '2026-06-02T22:23:16-04:00',
/* author */ ('brand'),
/* organization */ (''),
/* preprocessor_version */ 'ST-DEVELOPER v20.1',
/* originating_system */ 'Autodesk Inventor 2027',
/* authorisation */ '');

FILE_SCHEMA (('AUTOMOTIVE_DESIGN { 1 0 10303 214 3 1 1 }'));
ENDSEC;

DATA;
#10=MECHANICAL_DESIGN_GEOMETRIC_PRESENTATION_REPRESENTATION('',(#13),#1264);
#11=SHAPE_REPRESENTATION_RELATIONSHIP('SRR','None',#1271,#12);
#12=ADVANCED_BREP_SHAPE_REPRESENTATION('',(#14),#1263);
#13=STYLED_ITEM('',(#1280),#14);
#14=MANIFOLD_SOLID_BREP('Solid1',#747);
#15=B_SPLINE_CURVE_WITH_KNOTS('',3,(#1131,#1132,#1133,#1134,#1135,#1136,
#1137,#1138,#1139,#1140),.UNSPECIFIED.,.F.,.F.,(4,2,2,2,4),(0.810607690866331,
0.821442568595317,0.844697665397181,0.867952762199046,0.886180633585652),
 .UNSPECIFIED.);
#16=FACE_BOUND('',#91,.T.);
#17=FACE_BOUND('',#96,.T.);
#18=PLANE('',#773);
#19=PLANE('',#775);
#20=PLANE('',#778);
#21=PLANE('',#779);
#22=PLANE('',#780);
#23=PLANE('',#792);
#24=PLANE('',#793);
#25=PLANE('',#794);
#26=PLANE('',#795);
#27=PLANE('',#796);
#28=PLANE('',#797);
#29=PLANE('',#798);
#30=PLANE('',#801);
#31=PLANE('',#804);
#32=PLANE('',#807);
#33=PLANE('',#810);
#34=PLANE('',#811);
#35=PLANE('',#812);
#36=PLANE('',#815);
#37=PLANE('',#818);
#38=PLANE('',#821);
#39=PLANE('',#824);
#40=PLANE('',#825);
#41=PLANE('',#826);
#42=PLANE('',#827);
#43=PLANE('',#828);
#44=PLANE('',#829);
#45=PLANE('',#830);
#46=FACE_OUTER_BOUND('',#85,.T.);
#47=FACE_OUTER_BOUND('',#86,.T.);
#48=FACE_OUTER_BOUND('',#87,.T.);
#49=FACE_OUTER_BOUND('',#88,.T.);
#50=FACE_OUTER_BOUND('',#89,.T.);
#51=FACE_OUTER_BOUND('',#90,.T.);
#52=FACE_OUTER_BOUND('',#92,.T.);
#53=FACE_OUTER_BOUND('',#93,.T.);
#54=FACE_OUTER_BOUND('',#94,.T.);
#55=FACE_OUTER_BOUND('',#95,.T.);
#56=FACE_OUTER_BOUND('',#97,.T.);
#57=FACE_OUTER_BOUND('',#98,.T.);
#58=FACE_OUTER_BOUND('',#99,.T.);
#59=FACE_OUTER_BOUND('',#100,.T.);
#60=FACE_OUTER_BOUND('',#101,.T.);
#61=FACE_OUTER_BOUND('',#102,.T.);
#62=FACE_OUTER_BOUND('',#103,.T.);
#63=FACE_OUTER_BOUND('',#104,.T.);
#64=FACE_OUTER_BOUND('',#105,.T.);
#65=FACE_OUTER_BOUND('',#106,.T.);
#66=FACE_OUTER_BOUND('',#107,.T.);
#67=FACE_OUTER_BOUND('',#108,.T.);
#68=FACE_OUTER_BOUND('',#109,.T.);
#69=FACE_OUTER_BOUND('',#110,.T.);
#70=FACE_OUTER_BOUND('',#111,.T.);
#71=FACE_OUTER_BOUND('',#112,.T.);
#72=FACE_OUTER_BOUND('',#113,.T.);
#73=FACE_OUTER_BOUND('',#114,.T.);
#74=FACE_OUTER_BOUND('',#115,.T.);
#75=FACE_OUTER_BOUND('',#116,.T.);
#76=FACE_OUTER_BOUND('',#117,.T.);
#77=FACE_OUTER_BOUND('',#118,.T.);
#78=FACE_OUTER_BOUND('',#119,.T.);
#79=FACE_OUTER_BOUND('',#120,.T.);
#80=FACE_OUTER_BOUND('',#121,.T.);
#81=FACE_OUTER_BOUND('',#122,.T.);
#82=FACE_OUTER_BOUND('',#123,.T.);
#83=FACE_OUTER_BOUND('',#124,.T.);
#84=FACE_OUTER_BOUND('',#125,.T.);
#85=EDGE_LOOP('',(#487,#488,#489,#490));
#86=EDGE_LOOP('',(#491,#492,#493,#494,#495,#496,#497,#498));
#87=EDGE_LOOP('',(#499,#500,#501,#502));
#88=EDGE_LOOP('',(#503,#504,#505,#506));
#89=EDGE_LOOP('',(#507,#508,#509,#510));
#90=EDGE_LOOP('',(#511,#512,#513,#514));
#91=EDGE_LOOP('',(#515,#516,#517,#518));
#92=EDGE_LOOP('',(#519,#520,#521,#522,#523,#524,#525,#526,#527,#528,#529,
#530,#531,#532,#533,#534,#535,#536,#537,#538));
#93=EDGE_LOOP('',(#539,#540,#541,#542,#543));
#94=EDGE_LOOP('',(#544,#545,#546,#547));
#95=EDGE_LOOP('',(#548,#549,#550,#551));
#96=EDGE_LOOP('',(#552,#553,#554,#555));
#97=EDGE_LOOP('',(#556,#557,#558,#559));
#98=EDGE_LOOP('',(#560,#561,#562,#563));
#99=EDGE_LOOP('',(#564,#565,#566,#567));
#100=EDGE_LOOP('',(#568,#569,#570,#571));
#101=EDGE_LOOP('',(#572,#573,#574,#575));
#102=EDGE_LOOP('',(#576,#577,#578,#579));
#103=EDGE_LOOP('',(#580,#581,#582,#583));
#104=EDGE_LOOP('',(#584,#585,#586,#587));
#105=EDGE_LOOP('',(#588,#589,#590,#591));
#106=EDGE_LOOP('',(#592,#593,#594,#595));
#107=EDGE_LOOP('',(#596,#597,#598,#599));
#108=EDGE_LOOP('',(#600,#601,#602,#603,#604));
#109=EDGE_LOOP('',(#605,#606,#607,#608,#609,#610));
#110=EDGE_LOOP('',(#611,#612,#613,#614));
#111=EDGE_LOOP('',(#615,#616,#617,#618,#619,#620,#621));
#112=EDGE_LOOP('',(#622,#623,#624,#625));
#113=EDGE_LOOP('',(#626,#627,#628,#629));
#114=EDGE_LOOP('',(#630,#631,#632,#633));
#115=EDGE_LOOP('',(#634,#635,#636,#637));
#116=EDGE_LOOP('',(#638,#639,#640,#641));
#117=EDGE_LOOP('',(#642,#643,#644,#645));
#118=EDGE_LOOP('',(#646,#647,#648,#649));
#119=EDGE_LOOP('',(#650,#651,#652,#653,#654,#655,#656,#657));
#120=EDGE_LOOP('',(#658,#659,#660,#661));
#121=EDGE_LOOP('',(#662,#663,#664,#665));
#122=EDGE_LOOP('',(#666,#667,#668,#669));
#123=EDGE_LOOP('',(#670,#671,#672,#673));
#124=EDGE_LOOP('',(#674,#675,#676,#677));
#125=EDGE_LOOP('',(#678,#679,#680,#681,#682,#683,#684,#685,#686,#687,#688,
#689,#690,#691,#692,#693,#694,#695,#696));
#126=LINE('',#1043,#208);
#127=LINE('',#1046,#209);
#128=LINE('',#1049,#210);
#129=LINE('',#1051,#211);
#130=LINE('',#1053,#212);
#131=LINE('',#1057,#213);
#132=LINE('',#1059,#214);
#133=LINE('',#1060,#215);
#134=LINE('',#1063,#216);
#135=LINE('',#1064,#217);
#136=LINE('',#1067,#218);
#137=LINE('',#1070,#219);
#138=LINE('',#1073,#220);
#139=LINE('',#1074,#221);
#140=LINE('',#1078,#222);
#141=LINE('',#1080,#223);
#142=LINE('',#1082,#224);
#143=LINE('',#1083,#225);
#144=LINE('',#1084,#226);
#145=LINE('',#1087,#227);
#146=LINE('',#1091,#228);
#147=LINE('',#1095,#229);
#148=LINE('',#1099,#230);
#149=LINE('',#1103,#231);
#150=LINE('',#1105,#232);
#151=LINE('',#1107,#233);
#152=LINE('',#1111,#234);
#153=LINE('',#1115,#235);
#154=LINE('',#1119,#236);
#155=LINE('',#1126,#237);
#156=LINE('',#1130,#238);
#157=LINE('',#1143,#239);
#158=LINE('',#1145,#240);
#159=LINE('',#1146,#241);
#160=LINE('',#1150,#242);
#161=LINE('',#1152,#243);
#162=LINE('',#1154,#244);
#163=LINE('',#1155,#245);
#164=LINE('',#1157,#246);
#165=LINE('',#1159,#247);
#166=LINE('',#1160,#248);
#167=LINE('',#1164,#249);
#168=LINE('',#1165,#250);
#169=LINE('',#1166,#251);
#170=LINE('',#1169,#252);
#171=LINE('',#1170,#253);
#172=LINE('',#1173,#254);
#173=LINE('',#1174,#255);
#174=LINE('',#1176,#256);
#175=LINE('',#1181,#257);
#176=LINE('',#1184,#258);
#177=LINE('',#1185,#259);
#178=LINE('',#1189,#260);
#179=LINE('',#1192,#261);
#180=LINE('',#1193,#262);
#181=LINE('',#1197,#263);
#182=LINE('',#1200,#264);
#183=LINE('',#1201,#265);
#184=LINE('',#1204,#266);
#185=LINE('',#1206,#267);
#186=LINE('',#1208,#268);
#187=LINE('',#1211,#269);
#188=LINE('',#1212,#270);
#189=LINE('',#1216,#271);
#190=LINE('',#1219,#272);
#191=LINE('',#1220,#273);
#192=LINE('',#1224,#274);
#193=LINE('',#1227,#275);
#194=LINE('',#1228,#276);
#195=LINE('',#1232,#277);
#196=LINE('',#1235,#278);
#197=LINE('',#1236,#279);
#198=LINE('',#1240,#280);
#199=LINE('',#1242,#281);
#200=LINE('',#1246,#282);
#201=LINE('',#1248,#283);
#202=LINE('',#1250,#284);
#203=LINE('',#1251,#285);
#204=LINE('',#1253,#286);
#205=LINE('',#1254,#287);
#206=LINE('',#1256,#288);
#207=LINE('',#1258,#289);
#208=VECTOR('',#837,10.);
#209=VECTOR('',#840,10.);
#210=VECTOR('',#843,10.);
#211=VECTOR('',#844,10.);
#212=VECTOR('',#845,10.);
#213=VECTOR('',#848,10.);
#214=VECTOR('',#849,10.);
#215=VECTOR('',#850,10.);
#216=VECTOR('',#853,10.);
#217=VECTOR('',#854,10.);
#218=VECTOR('',#857,10.);
#219=VECTOR('',#860,10.);
#220=VECTOR('',#863,10.);
#221=VECTOR('',#864,10.);
#222=VECTOR('',#867,10.);
#223=VECTOR('',#868,10.);
#224=VECTOR('',#869,10.);
#225=VECTOR('',#870,10.);
#226=VECTOR('',#871,10.);
#227=VECTOR('',#874,10.);
#228=VECTOR('',#877,10.);
#229=VECTOR('',#880,10.);
#230=VECTOR('',#883,10.);
#231=VECTOR('',#886,10.);
#232=VECTOR('',#887,10.);
#233=VECTOR('',#888,10.);
#234=VECTOR('',#891,10.);
#235=VECTOR('',#894,10.);
#236=VECTOR('',#897,10.);
#237=VECTOR('',#904,10.);
#238=VECTOR('',#907,10.);
#239=VECTOR('',#910,10.);
#240=VECTOR('',#911,10.);
#241=VECTOR('',#912,10.);
#242=VECTOR('',#915,10.);
#243=VECTOR('',#916,10.);
#244=VECTOR('',#917,10.);
#245=VECTOR('',#918,10.);
#246=VECTOR('',#919,10.);
#247=VECTOR('',#920,10.);
#248=VECTOR('',#921,10.);
#249=VECTOR('',#924,10.);
#250=VECTOR('',#925,10.);
#251=VECTOR('',#926,10.);
#252=VECTOR('',#929,10.);
#253=VECTOR('',#930,10.);
#254=VECTOR('',#933,10.);
#255=VECTOR('',#934,10.);
#256=VECTOR('',#937,10.);
#257=VECTOR('',#944,10.);
#258=VECTOR('',#947,10.);
#259=VECTOR('',#948,10.);
#260=VECTOR('',#953,10.);
#261=VECTOR('',#956,10.);
#262=VECTOR('',#957,10.);
#263=VECTOR('',#962,10.);
#264=VECTOR('',#965,10.);
#265=VECTOR('',#966,10.);
#266=VECTOR('',#971,10.);
#267=VECTOR('',#974,10.);
#268=VECTOR('',#977,10.);
#269=VECTOR('',#980,10.);
#270=VECTOR('',#981,10.);
#271=VECTOR('',#986,10.);
#272=VECTOR('',#989,10.);
#273=VECTOR('',#990,10.);
#274=VECTOR('',#995,10.);
#275=VECTOR('',#998,10.);
#276=VECTOR('',#999,10.);
#277=VECTOR('',#1004,10.);
#278=VECTOR('',#1007,10.);
#279=VECTOR('',#1008,10.);
#280=VECTOR('',#1013,10.);
#281=VECTOR('',#1016,10.);
#282=VECTOR('',#1019,10.);
#283=VECTOR('',#1020,10.);
#284=VECTOR('',#1021,10.);
#285=VECTOR('',#1022,10.);
#286=VECTOR('',#1025,10.);
#287=VECTOR('',#1026,10.);
#288=VECTOR('',#1029,10.);
#289=VECTOR('',#1032,10.);
#290=CIRCLE('',#771,1.);
#291=CIRCLE('',#772,1.);
#292=CIRCLE('',#774,1.);
#293=CIRCLE('',#777,1.);
#294=CIRCLE('',#781,1.00000000000001);
#295=CIRCLE('',#782,1.00000000000001);
#296=CIRCLE('',#783,1.00000000000001);
#297=CIRCLE('',#784,1.);
#298=CIRCLE('',#785,1.00000000000001);
#299=CIRCLE('',#786,0.999999999999992);
#300=CIRCLE('',#787,1.00000000000001);
#301=CIRCLE('',#788,1.);
#302=CIRCLE('',#790,1.);
#303=CIRCLE('',#791,1.);
#304=CIRCLE('',#800,1.);
#305=CIRCLE('',#803,1.00000000000001);
#306=CIRCLE('',#806,0.999999999999992);
#307=CIRCLE('',#809,1.00000000000001);
#308=CIRCLE('',#814,1.);
#309=CIRCLE('',#817,1.00000000000001);
#310=CIRCLE('',#820,1.00000000000001);
#311=CIRCLE('',#823,1.00000000000001);
#312=VERTEX_POINT('',#1039);
#313=VERTEX_POINT('',#1040);
#314=VERTEX_POINT('',#1042);
#315=VERTEX_POINT('',#1044);
#316=VERTEX_POINT('',#1048);
#317=VERTEX_POINT('',#1050);
#318=VERTEX_POINT('',#1052);
#319=VERTEX_POINT('',#1054);
#320=VERTEX_POINT('',#1056);
#321=VERTEX_POINT('',#1058);
#322=VERTEX_POINT('',#1062);
#323=VERTEX_POINT('',#1066);
#324=VERTEX_POINT('',#1068);
#325=VERTEX_POINT('',#1072);
#326=VERTEX_POINT('',#1076);
#327=VERTEX_POINT('',#1077);
#328=VERTEX_POINT('',#1079);
#329=VERTEX_POINT('',#1081);
#330=VERTEX_POINT('',#1086);
#331=VERTEX_POINT('',#1088);
#332=VERTEX_POINT('',#1090);
#333=VERTEX_POINT('',#1092);
#334=VERTEX_POINT('',#1094);
#335=VERTEX_POINT('',#1096);
#336=VERTEX_POINT('',#1098);
#337=VERTEX_POINT('',#1100);
#338=VERTEX_POINT('',#1102);
#339=VERTEX_POINT('',#1104);
#340=VERTEX_POINT('',#1106);
#341=VERTEX_POINT('',#1108);
#342=VERTEX_POINT('',#1110);
#343=VERTEX_POINT('',#1112);
#344=VERTEX_POINT('',#1114);
#345=VERTEX_POINT('',#1116);
#346=VERTEX_POINT('',#1118);
#347=VERTEX_POINT('',#1122);
#348=VERTEX_POINT('',#1123);
#349=VERTEX_POINT('',#1125);
#350=VERTEX_POINT('',#1127);
#351=VERTEX_POINT('',#1129);
#352=VERTEX_POINT('',#1142);
#353=VERTEX_POINT('',#1144);
#354=VERTEX_POINT('',#1148);
#355=VERTEX_POINT('',#1149);
#356=VERTEX_POINT('',#1151);
#357=VERTEX_POINT('',#1153);
#358=VERTEX_POINT('',#1156);
#359=VERTEX_POINT('',#1158);
#360=VERTEX_POINT('',#1162);
#361=VERTEX_POINT('',#1163);
#362=VERTEX_POINT('',#1168);
#363=VERTEX_POINT('',#1172);
#364=VERTEX_POINT('',#1179);
#365=VERTEX_POINT('',#1183);
#366=VERTEX_POINT('',#1187);
#367=VERTEX_POINT('',#1191);
#368=VERTEX_POINT('',#1195);
#369=VERTEX_POINT('',#1199);
#370=VERTEX_POINT('',#1210);
#371=VERTEX_POINT('',#1214);
#372=VERTEX_POINT('',#1218);
#373=VERTEX_POINT('',#1222);
#374=VERTEX_POINT('',#1226);
#375=VERTEX_POINT('',#1230);
#376=VERTEX_POINT('',#1234);
#377=VERTEX_POINT('',#1238);
#378=VERTEX_POINT('',#1244);
#379=VERTEX_POINT('',#1245);
#380=VERTEX_POINT('',#1247);
#381=VERTEX_POINT('',#1249);
#382=EDGE_CURVE('',#312,#313,#290,.T.);
#383=EDGE_CURVE('',#312,#314,#126,.T.);
#384=EDGE_CURVE('',#315,#314,#291,.T.);
#385=EDGE_CURVE('',#315,#313,#127,.T.);
#386=EDGE_CURVE('',#314,#316,#128,.T.);
#387=EDGE_CURVE('',#317,#316,#129,.T.);
#388=EDGE_CURVE('',#318,#317,#130,.T.);
#389=EDGE_CURVE('',#319,#318,#292,.F.);
#390=EDGE_CURVE('',#320,#319,#131,.T.);
#391=EDGE_CURVE('',#321,#320,#132,.T.);
#392=EDGE_CURVE('',#315,#321,#133,.T.);
#393=EDGE_CURVE('',#312,#322,#134,.T.);
#394=EDGE_CURVE('',#316,#322,#135,.T.);
#395=EDGE_CURVE('',#318,#323,#136,.T.);
#396=EDGE_CURVE('',#323,#324,#293,.F.);
#397=EDGE_CURVE('',#324,#319,#137,.T.);
#398=EDGE_CURVE('',#325,#317,#138,.T.);
#399=EDGE_CURVE('',#323,#325,#139,.T.);
#400=EDGE_CURVE('',#326,#327,#140,.T.);
#401=EDGE_CURVE('',#327,#328,#141,.T.);
#402=EDGE_CURVE('',#328,#329,#142,.T.);
#403=EDGE_CURVE('',#329,#326,#143,.T.);
#404=EDGE_CURVE('',#322,#325,#144,.T.);
#405=EDGE_CURVE('',#324,#330,#145,.T.);
#406=EDGE_CURVE('',#330,#331,#294,.T.);
#407=EDGE_CURVE('',#331,#332,#146,.T.);
#408=EDGE_CURVE('',#332,#333,#295,.T.);
#409=EDGE_CURVE('',#333,#334,#147,.T.);
#410=EDGE_CURVE('',#334,#335,#296,.T.);
#411=EDGE_CURVE('',#335,#336,#148,.T.);
#412=EDGE_CURVE('',#336,#337,#297,.T.);
#413=EDGE_CURVE('',#337,#338,#149,.T.);
#414=EDGE_CURVE('',#338,#339,#150,.T.);
#415=EDGE_CURVE('',#339,#340,#151,.T.);
#416=EDGE_CURVE('',#340,#341,#298,.T.);
#417=EDGE_CURVE('',#341,#342,#152,.T.);
#418=EDGE_CURVE('',#342,#343,#299,.T.);
#419=EDGE_CURVE('',#343,#344,#153,.T.);
#420=EDGE_CURVE('',#344,#345,#300,.T.);
#421=EDGE_CURVE('',#345,#346,#154,.T.);
#422=EDGE_CURVE('',#346,#320,#301,.T.);
#423=EDGE_CURVE('',#347,#348,#302,.F.);
#424=EDGE_CURVE('',#348,#349,#155,.T.);
#425=EDGE_CURVE('',#349,#350,#303,.F.);
#426=EDGE_CURVE('',#350,#351,#156,.T.);
#427=EDGE_CURVE('',#351,#347,#15,.F.);
#428=EDGE_CURVE('',#348,#352,#157,.T.);
#429=EDGE_CURVE('',#353,#352,#158,.T.);
#430=EDGE_CURVE('',#349,#353,#159,.T.);
#431=EDGE_CURVE('',#354,#355,#160,.T.);
#432=EDGE_CURVE('',#355,#356,#161,.T.);
#433=EDGE_CURVE('',#356,#357,#162,.T.);
#434=EDGE_CURVE('',#357,#354,#163,.T.);
#435=EDGE_CURVE('',#352,#358,#164,.T.);
#436=EDGE_CURVE('',#358,#359,#165,.T.);
#437=EDGE_CURVE('',#359,#353,#166,.T.);
#438=EDGE_CURVE('',#360,#361,#167,.T.);
#439=EDGE_CURVE('',#360,#355,#168,.T.);
#440=EDGE_CURVE('',#361,#354,#169,.T.);
#441=EDGE_CURVE('',#361,#362,#170,.T.);
#442=EDGE_CURVE('',#362,#357,#171,.T.);
#443=EDGE_CURVE('',#362,#363,#172,.T.);
#444=EDGE_CURVE('',#363,#356,#173,.T.);
#445=EDGE_CURVE('',#363,#360,#174,.T.);
#446=EDGE_CURVE('',#321,#364,#304,.T.);
#447=EDGE_CURVE('',#364,#346,#175,.T.);
#448=EDGE_CURVE('',#364,#365,#176,.T.);
#449=EDGE_CURVE('',#365,#345,#177,.T.);
#450=EDGE_CURVE('',#365,#366,#305,.T.);
#451=EDGE_CURVE('',#366,#344,#178,.T.);
#452=EDGE_CURVE('',#366,#367,#179,.T.);
#453=EDGE_CURVE('',#367,#343,#180,.T.);
#454=EDGE_CURVE('',#367,#368,#306,.T.);
#455=EDGE_CURVE('',#368,#342,#181,.T.);
#456=EDGE_CURVE('',#368,#369,#182,.T.);
#457=EDGE_CURVE('',#369,#341,#183,.T.);
#458=EDGE_CURVE('',#369,#351,#307,.T.);
#459=EDGE_CURVE('',#347,#340,#184,.T.);
#460=EDGE_CURVE('',#339,#358,#185,.T.);
#461=EDGE_CURVE('',#338,#359,#186,.T.);
#462=EDGE_CURVE('',#370,#337,#187,.T.);
#463=EDGE_CURVE('',#350,#370,#188,.T.);
#464=EDGE_CURVE('',#370,#371,#308,.T.);
#465=EDGE_CURVE('',#371,#336,#189,.T.);
#466=EDGE_CURVE('',#371,#372,#190,.T.);
#467=EDGE_CURVE('',#372,#335,#191,.T.);
#468=EDGE_CURVE('',#372,#373,#309,.T.);
#469=EDGE_CURVE('',#373,#334,#192,.T.);
#470=EDGE_CURVE('',#373,#374,#193,.T.);
#471=EDGE_CURVE('',#374,#333,#194,.T.);
#472=EDGE_CURVE('',#374,#375,#310,.T.);
#473=EDGE_CURVE('',#375,#332,#195,.T.);
#474=EDGE_CURVE('',#375,#376,#196,.T.);
#475=EDGE_CURVE('',#376,#331,#197,.T.);
#476=EDGE_CURVE('',#376,#377,#311,.T.);
#477=EDGE_CURVE('',#377,#330,#198,.T.);
#478=EDGE_CURVE('',#377,#313,#199,.T.);
#479=EDGE_CURVE('',#378,#379,#200,.T.);
#480=EDGE_CURVE('',#380,#378,#201,.T.);
#481=EDGE_CURVE('',#381,#380,#202,.T.);
#482=EDGE_CURVE('',#379,#381,#203,.T.);
#483=EDGE_CURVE('',#379,#327,#204,.T.);
#484=EDGE_CURVE('',#378,#326,#205,.T.);
#485=EDGE_CURVE('',#381,#328,#206,.T.);
#486=EDGE_CURVE('',#380,#329,#207,.T.);
#487=ORIENTED_EDGE('',*,*,#382,.F.);
#488=ORIENTED_EDGE('',*,*,#383,.T.);
#489=ORIENTED_EDGE('',*,*,#384,.F.);
#490=ORIENTED_EDGE('',*,*,#385,.T.);
#491=ORIENTED_EDGE('',*,*,#384,.T.);
#492=ORIENTED_EDGE('',*,*,#386,.T.);
#493=ORIENTED_EDGE('',*,*,#387,.F.);
#494=ORIENTED_EDGE('',*,*,#388,.F.);
#495=ORIENTED_EDGE('',*,*,#389,.F.);
#496=ORIENTED_EDGE('',*,*,#390,.F.);
#497=ORIENTED_EDGE('',*,*,#391,.F.);
#498=ORIENTED_EDGE('',*,*,#392,.F.);
#499=ORIENTED_EDGE('',*,*,#383,.F.);
#500=ORIENTED_EDGE('',*,*,#393,.T.);
#501=ORIENTED_EDGE('',*,*,#394,.F.);
#502=ORIENTED_EDGE('',*,*,#386,.F.);
#503=ORIENTED_EDGE('',*,*,#389,.T.);
#504=ORIENTED_EDGE('',*,*,#395,.T.);
#505=ORIENTED_EDGE('',*,*,#396,.T.);
#506=ORIENTED_EDGE('',*,*,#397,.T.);
#507=ORIENTED_EDGE('',*,*,#395,.F.);
#508=ORIENTED_EDGE('',*,*,#388,.T.);
#509=ORIENTED_EDGE('',*,*,#398,.F.);
#510=ORIENTED_EDGE('',*,*,#399,.F.);
#511=ORIENTED_EDGE('',*,*,#400,.T.);
#512=ORIENTED_EDGE('',*,*,#401,.T.);
#513=ORIENTED_EDGE('',*,*,#402,.T.);
#514=ORIENTED_EDGE('',*,*,#403,.T.);
#515=ORIENTED_EDGE('',*,*,#394,.T.);
#516=ORIENTED_EDGE('',*,*,#404,.T.);
#517=ORIENTED_EDGE('',*,*,#398,.T.);
#518=ORIENTED_EDGE('',*,*,#387,.T.);
#519=ORIENTED_EDGE('',*,*,#397,.F.);
#520=ORIENTED_EDGE('',*,*,#405,.T.);
#521=ORIENTED_EDGE('',*,*,#406,.T.);
#522=ORIENTED_EDGE('',*,*,#407,.T.);
#523=ORIENTED_EDGE('',*,*,#408,.T.);
#524=ORIENTED_EDGE('',*,*,#409,.T.);
#525=ORIENTED_EDGE('',*,*,#410,.T.);
#526=ORIENTED_EDGE('',*,*,#411,.T.);
#527=ORIENTED_EDGE('',*,*,#412,.T.);
#528=ORIENTED_EDGE('',*,*,#413,.T.);
#529=ORIENTED_EDGE('',*,*,#414,.T.);
#530=ORIENTED_EDGE('',*,*,#415,.T.);
#531=ORIENTED_EDGE('',*,*,#416,.T.);
#532=ORIENTED_EDGE('',*,*,#417,.T.);
#533=ORIENTED_EDGE('',*,*,#418,.T.);
#534=ORIENTED_EDGE('',*,*,#419,.T.);
#535=ORIENTED_EDGE('',*,*,#420,.T.);
#536=ORIENTED_EDGE('',*,*,#421,.T.);
#537=ORIENTED_EDGE('',*,*,#422,.T.);
#538=ORIENTED_EDGE('',*,*,#390,.T.);
#539=ORIENTED_EDGE('',*,*,#423,.T.);
#540=ORIENTED_EDGE('',*,*,#424,.T.);
#541=ORIENTED_EDGE('',*,*,#425,.T.);
#542=ORIENTED_EDGE('',*,*,#426,.T.);
#543=ORIENTED_EDGE('',*,*,#427,.T.);
#544=ORIENTED_EDGE('',*,*,#424,.F.);
#545=ORIENTED_EDGE('',*,*,#428,.T.);
#546=ORIENTED_EDGE('',*,*,#429,.F.);
#547=ORIENTED_EDGE('',*,*,#430,.F.);
#548=ORIENTED_EDGE('',*,*,#431,.T.);
#549=ORIENTED_EDGE('',*,*,#432,.T.);
#550=ORIENTED_EDGE('',*,*,#433,.T.);
#551=ORIENTED_EDGE('',*,*,#434,.T.);
#552=ORIENTED_EDGE('',*,*,#429,.T.);
#553=ORIENTED_EDGE('',*,*,#435,.T.);
#554=ORIENTED_EDGE('',*,*,#436,.T.);
#555=ORIENTED_EDGE('',*,*,#437,.T.);
#556=ORIENTED_EDGE('',*,*,#438,.F.);
#557=ORIENTED_EDGE('',*,*,#439,.T.);
#558=ORIENTED_EDGE('',*,*,#431,.F.);
#559=ORIENTED_EDGE('',*,*,#440,.F.);
#560=ORIENTED_EDGE('',*,*,#441,.F.);
#561=ORIENTED_EDGE('',*,*,#440,.T.);
#562=ORIENTED_EDGE('',*,*,#434,.F.);
#563=ORIENTED_EDGE('',*,*,#442,.F.);
#564=ORIENTED_EDGE('',*,*,#443,.F.);
#565=ORIENTED_EDGE('',*,*,#442,.T.);
#566=ORIENTED_EDGE('',*,*,#433,.F.);
#567=ORIENTED_EDGE('',*,*,#444,.F.);
#568=ORIENTED_EDGE('',*,*,#445,.F.);
#569=ORIENTED_EDGE('',*,*,#444,.T.);
#570=ORIENTED_EDGE('',*,*,#432,.F.);
#571=ORIENTED_EDGE('',*,*,#439,.F.);
#572=ORIENTED_EDGE('',*,*,#438,.T.);
#573=ORIENTED_EDGE('',*,*,#441,.T.);
#574=ORIENTED_EDGE('',*,*,#443,.T.);
#575=ORIENTED_EDGE('',*,*,#445,.T.);
#576=ORIENTED_EDGE('',*,*,#446,.F.);
#577=ORIENTED_EDGE('',*,*,#391,.T.);
#578=ORIENTED_EDGE('',*,*,#422,.F.);
#579=ORIENTED_EDGE('',*,*,#447,.F.);
#580=ORIENTED_EDGE('',*,*,#448,.F.);
#581=ORIENTED_EDGE('',*,*,#447,.T.);
#582=ORIENTED_EDGE('',*,*,#421,.F.);
#583=ORIENTED_EDGE('',*,*,#449,.F.);
#584=ORIENTED_EDGE('',*,*,#450,.F.);
#585=ORIENTED_EDGE('',*,*,#449,.T.);
#586=ORIENTED_EDGE('',*,*,#420,.F.);
#587=ORIENTED_EDGE('',*,*,#451,.F.);
#588=ORIENTED_EDGE('',*,*,#452,.F.);
#589=ORIENTED_EDGE('',*,*,#451,.T.);
#590=ORIENTED_EDGE('',*,*,#419,.F.);
#591=ORIENTED_EDGE('',*,*,#453,.F.);
#592=ORIENTED_EDGE('',*,*,#454,.F.);
#593=ORIENTED_EDGE('',*,*,#453,.T.);
#594=ORIENTED_EDGE('',*,*,#418,.F.);
#595=ORIENTED_EDGE('',*,*,#455,.F.);
#596=ORIENTED_EDGE('',*,*,#456,.F.);
#597=ORIENTED_EDGE('',*,*,#455,.T.);
#598=ORIENTED_EDGE('',*,*,#417,.F.);
#599=ORIENTED_EDGE('',*,*,#457,.F.);
#600=ORIENTED_EDGE('',*,*,#458,.F.);
#601=ORIENTED_EDGE('',*,*,#457,.T.);
#602=ORIENTED_EDGE('',*,*,#416,.F.);
#603=ORIENTED_EDGE('',*,*,#459,.F.);
#604=ORIENTED_EDGE('',*,*,#427,.F.);
#605=ORIENTED_EDGE('',*,*,#459,.T.);
#606=ORIENTED_EDGE('',*,*,#415,.F.);
#607=ORIENTED_EDGE('',*,*,#460,.T.);
#608=ORIENTED_EDGE('',*,*,#435,.F.);
#609=ORIENTED_EDGE('',*,*,#428,.F.);
#610=ORIENTED_EDGE('',*,*,#423,.F.);
#611=ORIENTED_EDGE('',*,*,#460,.F.);
#612=ORIENTED_EDGE('',*,*,#414,.F.);
#613=ORIENTED_EDGE('',*,*,#461,.T.);
#614=ORIENTED_EDGE('',*,*,#436,.F.);
#615=ORIENTED_EDGE('',*,*,#461,.F.);
#616=ORIENTED_EDGE('',*,*,#413,.F.);
#617=ORIENTED_EDGE('',*,*,#462,.F.);
#618=ORIENTED_EDGE('',*,*,#463,.F.);
#619=ORIENTED_EDGE('',*,*,#425,.F.);
#620=ORIENTED_EDGE('',*,*,#430,.T.);
#621=ORIENTED_EDGE('',*,*,#437,.F.);
#622=ORIENTED_EDGE('',*,*,#464,.F.);
#623=ORIENTED_EDGE('',*,*,#462,.T.);
#624=ORIENTED_EDGE('',*,*,#412,.F.);
#625=ORIENTED_EDGE('',*,*,#465,.F.);
#626=ORIENTED_EDGE('',*,*,#466,.F.);
#627=ORIENTED_EDGE('',*,*,#465,.T.);
#628=ORIENTED_EDGE('',*,*,#411,.F.);
#629=ORIENTED_EDGE('',*,*,#467,.F.);
#630=ORIENTED_EDGE('',*,*,#468,.F.);
#631=ORIENTED_EDGE('',*,*,#467,.T.);
#632=ORIENTED_EDGE('',*,*,#410,.F.);
#633=ORIENTED_EDGE('',*,*,#469,.F.);
#634=ORIENTED_EDGE('',*,*,#470,.F.);
#635=ORIENTED_EDGE('',*,*,#469,.T.);
#636=ORIENTED_EDGE('',*,*,#409,.F.);
#637=ORIENTED_EDGE('',*,*,#471,.F.);
#638=ORIENTED_EDGE('',*,*,#472,.F.);
#639=ORIENTED_EDGE('',*,*,#471,.T.);
#640=ORIENTED_EDGE('',*,*,#408,.F.);
#641=ORIENTED_EDGE('',*,*,#473,.F.);
#642=ORIENTED_EDGE('',*,*,#474,.F.);
#643=ORIENTED_EDGE('',*,*,#473,.T.);
#644=ORIENTED_EDGE('',*,*,#407,.F.);
#645=ORIENTED_EDGE('',*,*,#475,.F.);
#646=ORIENTED_EDGE('',*,*,#476,.F.);
#647=ORIENTED_EDGE('',*,*,#475,.T.);
#648=ORIENTED_EDGE('',*,*,#406,.F.);
#649=ORIENTED_EDGE('',*,*,#477,.F.);
#650=ORIENTED_EDGE('',*,*,#382,.T.);
#651=ORIENTED_EDGE('',*,*,#478,.F.);
#652=ORIENTED_EDGE('',*,*,#477,.T.);
#653=ORIENTED_EDGE('',*,*,#405,.F.);
#654=ORIENTED_EDGE('',*,*,#396,.F.);
#655=ORIENTED_EDGE('',*,*,#399,.T.);
#656=ORIENTED_EDGE('',*,*,#404,.F.);
#657=ORIENTED_EDGE('',*,*,#393,.F.);
#658=ORIENTED_EDGE('',*,*,#479,.F.);
#659=ORIENTED_EDGE('',*,*,#480,.F.);
#660=ORIENTED_EDGE('',*,*,#481,.F.);
#661=ORIENTED_EDGE('',*,*,#482,.F.);
#662=ORIENTED_EDGE('',*,*,#479,.T.);
#663=ORIENTED_EDGE('',*,*,#483,.T.);
#664=ORIENTED_EDGE('',*,*,#400,.F.);
#665=ORIENTED_EDGE('',*,*,#484,.F.);
#666=ORIENTED_EDGE('',*,*,#482,.T.);
#667=ORIENTED_EDGE('',*,*,#485,.T.);
#668=ORIENTED_EDGE('',*,*,#401,.F.);
#669=ORIENTED_EDGE('',*,*,#483,.F.);
#670=ORIENTED_EDGE('',*,*,#481,.T.);
#671=ORIENTED_EDGE('',*,*,#486,.T.);
#672=ORIENTED_EDGE('',*,*,#402,.F.);
#673=ORIENTED_EDGE('',*,*,#485,.F.);
#674=ORIENTED_EDGE('',*,*,#480,.T.);
#675=ORIENTED_EDGE('',*,*,#484,.T.);
#676=ORIENTED_EDGE('',*,*,#403,.F.);
#677=ORIENTED_EDGE('',*,*,#486,.F.);
#678=ORIENTED_EDGE('',*,*,#385,.F.);
#679=ORIENTED_EDGE('',*,*,#392,.T.);
#680=ORIENTED_EDGE('',*,*,#446,.T.);
#681=ORIENTED_EDGE('',*,*,#448,.T.);
#682=ORIENTED_EDGE('',*,*,#450,.T.);
#683=ORIENTED_EDGE('',*,*,#452,.T.);
#684=ORIENTED_EDGE('',*,*,#454,.T.);
#685=ORIENTED_EDGE('',*,*,#456,.T.);
#686=ORIENTED_EDGE('',*,*,#458,.T.);
#687=ORIENTED_EDGE('',*,*,#426,.F.);
#688=ORIENTED_EDGE('',*,*,#463,.T.);
#689=ORIENTED_EDGE('',*,*,#464,.T.);
#690=ORIENTED_EDGE('',*,*,#466,.T.);
#691=ORIENTED_EDGE('',*,*,#468,.T.);
#692=ORIENTED_EDGE('',*,*,#470,.T.);
#693=ORIENTED_EDGE('',*,*,#472,.T.);
#694=ORIENTED_EDGE('',*,*,#474,.T.);
#695=ORIENTED_EDGE('',*,*,#476,.T.);
#696=ORIENTED_EDGE('',*,*,#478,.T.);
#697=CYLINDRICAL_SURFACE('',#770,1.);
#698=CYLINDRICAL_SURFACE('',#776,1.);
#699=CYLINDRICAL_SURFACE('',#789,1.);
#700=CYLINDRICAL_SURFACE('',#799,1.);
#701=CYLINDRICAL_SURFACE('',#802,1.00000000000001);
#702=CYLINDRICAL_SURFACE('',#805,0.999999999999992);
#703=CYLINDRICAL_SURFACE('',#808,1.00000000000001);
#704=CYLINDRICAL_SURFACE('',#813,1.);
#705=CYLINDRICAL_SURFACE('',#816,1.00000000000001);
#706=CYLINDRICAL_SURFACE('',#819,1.00000000000001);
#707=CYLINDRICAL_SURFACE('',#822,1.00000000000001);
#708=ADVANCED_FACE('',(#46),#697,.F.);
#709=ADVANCED_FACE('',(#47),#18,.T.);
#710=ADVANCED_FACE('',(#48),#19,.T.);
#711=ADVANCED_FACE('',(#49),#698,.T.);
#712=ADVANCED_FACE('',(#50),#20,.T.);
#713=ADVANCED_FACE('',(#51,#16),#21,.T.);
#714=ADVANCED_FACE('',(#52),#22,.F.);
#715=ADVANCED_FACE('',(#53),#699,.T.);
#716=ADVANCED_FACE('',(#54),#23,.F.);
#717=ADVANCED_FACE('',(#55,#17),#24,.F.);
#718=ADVANCED_FACE('',(#56),#25,.T.);
#719=ADVANCED_FACE('',(#57),#26,.T.);
#720=ADVANCED_FACE('',(#58),#27,.T.);
#721=ADVANCED_FACE('',(#59),#28,.T.);
#722=ADVANCED_FACE('',(#60),#29,.T.);
#723=ADVANCED_FACE('',(#61),#700,.T.);
#724=ADVANCED_FACE('',(#62),#30,.T.);
#725=ADVANCED_FACE('',(#63),#701,.T.);
#726=ADVANCED_FACE('',(#64),#31,.T.);
#727=ADVANCED_FACE('',(#65),#702,.T.);
#728=ADVANCED_FACE('',(#66),#32,.T.);
#729=ADVANCED_FACE('',(#67),#703,.T.);
#730=ADVANCED_FACE('',(#68),#33,.T.);
#731=ADVANCED_FACE('',(#69),#34,.T.);
#732=ADVANCED_FACE('',(#70),#35,.T.);
#733=ADVANCED_FACE('',(#71),#704,.F.);
#734=ADVANCED_FACE('',(#72),#36,.T.);
#735=ADVANCED_FACE('',(#73),#705,.F.);
#736=ADVANCED_FACE('',(#74),#37,.T.);
#737=ADVANCED_FACE('',(#75),#706,.F.);
#738=ADVANCED_FACE('',(#76),#38,.T.);
#739=ADVANCED_FACE('',(#77),#707,.F.);
#740=ADVANCED_FACE('',(#78),#39,.T.);
#741=ADVANCED_FACE('',(#79),#40,.F.);
#742=ADVANCED_FACE('',(#80),#41,.T.);
#743=ADVANCED_FACE('',(#81),#42,.T.);
#744=ADVANCED_FACE('',(#82),#43,.T.);
#745=ADVANCED_FACE('',(#83),#44,.T.);
#746=ADVANCED_FACE('',(#84),#45,.T.);
#747=CLOSED_SHELL('',(#708,#709,#710,#711,#712,#713,#714,#715,#716,#717,
#718,#719,#720,#721,#722,#723,#724,#725,#726,#727,#728,#729,#730,#731,#732,
#733,#734,#735,#736,#737,#738,#739,#740,#741,#742,#743,#744,#745,#746));
#748=DERIVED_UNIT_ELEMENT(#751,1.);
#749=DERIVED_UNIT_ELEMENT(#1266,-3.);
#750=DIMENSIONAL_EXPONENTS(0.,1.,0.,0.,0.,0.,0.);
#751=(
CONVERSION_BASED_UNIT('gram',#753)
MASS_UNIT()
NAMED_UNIT(#750)
);
#752=(
MASS_UNIT()
NAMED_UNIT(*)
SI_UNIT(.KILO.,.GRAM.)
);
#753=MASS_MEASURE_WITH_UNIT(MASS_MEASURE(0.001),#752);
#754=DERIVED_UNIT((#748,#749));
#755=MEASURE_REPRESENTATION_ITEM('density measure',
POSITIVE_RATIO_MEASURE(2.18),#754);
#756=PROPERTY_DEFINITION_REPRESENTATION(#761,#758);
#757=PROPERTY_DEFINITION_REPRESENTATION(#762,#759);
#758=REPRESENTATION('material name',(#760),#1263);
#759=REPRESENTATION('density',(#755),#1263);
#760=DESCRIPTIVE_REPRESENTATION_ITEM('Glass','Glass');
#761=PROPERTY_DEFINITION('material property','material name',#1273);
#762=PROPERTY_DEFINITION('material property','density of part',#1273);
#763=DATE_TIME_ROLE('creation_date');
#764=APPLIED_DATE_AND_TIME_ASSIGNMENT(#765,#763,(#1273));
#765=DATE_AND_TIME(#766,#767);
#766=CALENDAR_DATE(2026,1,6);
#767=LOCAL_TIME(0,0,0.,#768);
#768=COORDINATED_UNIVERSAL_TIME_OFFSET(0,0,.BEHIND.);
#769=AXIS2_PLACEMENT_3D('',#1037,#831,#832);
#770=AXIS2_PLACEMENT_3D('',#1038,#833,#834);
#771=AXIS2_PLACEMENT_3D('',#1041,#835,#836);
#772=AXIS2_PLACEMENT_3D('',#1045,#838,#839);
#773=AXIS2_PLACEMENT_3D('',#1047,#841,#842);
#774=AXIS2_PLACEMENT_3D('',#1055,#846,#847);
#775=AXIS2_PLACEMENT_3D('',#1061,#851,#852);
#776=AXIS2_PLACEMENT_3D('',#1065,#855,#856);
#777=AXIS2_PLACEMENT_3D('',#1069,#858,#859);
#778=AXIS2_PLACEMENT_3D('',#1071,#861,#862);
#779=AXIS2_PLACEMENT_3D('',#1075,#865,#866);
#780=AXIS2_PLACEMENT_3D('',#1085,#872,#873);
#781=AXIS2_PLACEMENT_3D('',#1089,#875,#876);
#782=AXIS2_PLACEMENT_3D('',#1093,#878,#879);
#783=AXIS2_PLACEMENT_3D('',#1097,#881,#882);
#784=AXIS2_PLACEMENT_3D('',#1101,#884,#885);
#785=AXIS2_PLACEMENT_3D('',#1109,#889,#890);
#786=AXIS2_PLACEMENT_3D('',#1113,#892,#893);
#787=AXIS2_PLACEMENT_3D('',#1117,#895,#896);
#788=AXIS2_PLACEMENT_3D('',#1120,#898,#899);
#789=AXIS2_PLACEMENT_3D('',#1121,#900,#901);
#790=AXIS2_PLACEMENT_3D('',#1124,#902,#903);
#791=AXIS2_PLACEMENT_3D('',#1128,#905,#906);
#792=AXIS2_PLACEMENT_3D('',#1141,#908,#909);
#793=AXIS2_PLACEMENT_3D('',#1147,#913,#914);
#794=AXIS2_PLACEMENT_3D('',#1161,#922,#923);
#795=AXIS2_PLACEMENT_3D('',#1167,#927,#928);
#796=AXIS2_PLACEMENT_3D('',#1171,#931,#932);
#797=AXIS2_PLACEMENT_3D('',#1175,#935,#936);
#798=AXIS2_PLACEMENT_3D('',#1177,#938,#939);
#799=AXIS2_PLACEMENT_3D('',#1178,#940,#941);
#800=AXIS2_PLACEMENT_3D('',#1180,#942,#943);
#801=AXIS2_PLACEMENT_3D('',#1182,#945,#946);
#802=AXIS2_PLACEMENT_3D('',#1186,#949,#950);
#803=AXIS2_PLACEMENT_3D('',#1188,#951,#952);
#804=AXIS2_PLACEMENT_3D('',#1190,#954,#955);
#805=AXIS2_PLACEMENT_3D('',#1194,#958,#959);
#806=AXIS2_PLACEMENT_3D('',#1196,#960,#961);
#807=AXIS2_PLACEMENT_3D('',#1198,#963,#964);
#808=AXIS2_PLACEMENT_3D('',#1202,#967,#968);
#809=AXIS2_PLACEMENT_3D('',#1203,#969,#970);
#810=AXIS2_PLACEMENT_3D('',#1205,#972,#973);
#811=AXIS2_PLACEMENT_3D('',#1207,#975,#976);
#812=AXIS2_PLACEMENT_3D('',#1209,#978,#979);
#813=AXIS2_PLACEMENT_3D('',#1213,#982,#983);
#814=AXIS2_PLACEMENT_3D('',#1215,#984,#985);
#815=AXIS2_PLACEMENT_3D('',#1217,#987,#988);
#816=AXIS2_PLACEMENT_3D('',#1221,#991,#992);
#817=AXIS2_PLACEMENT_3D('',#1223,#993,#994);
#818=AXIS2_PLACEMENT_3D('',#1225,#996,#997);
#819=AXIS2_PLACEMENT_3D('',#1229,#1000,#1001);
#820=AXIS2_PLACEMENT_3D('',#1231,#1002,#1003);
#821=AXIS2_PLACEMENT_3D('',#1233,#1005,#1006);
#822=AXIS2_PLACEMENT_3D('',#1237,#1009,#1010);
#823=AXIS2_PLACEMENT_3D('',#1239,#1011,#1012);
#824=AXIS2_PLACEMENT_3D('',#1241,#1014,#1015);
#825=AXIS2_PLACEMENT_3D('',#1243,#1017,#1018);
#826=AXIS2_PLACEMENT_3D('',#1252,#1023,#1024);
#827=AXIS2_PLACEMENT_3D('',#1255,#1027,#1028);
#828=AXIS2_PLACEMENT_3D('',#1257,#1030,#1031);
#829=AXIS2_PLACEMENT_3D('',#1259,#1033,#1034);
#830=AXIS2_PLACEMENT_3D('',#1260,#1035,#1036);
#831=DIRECTION('axis',(0.,0.,1.));
#832=DIRECTION('refdir',(1.,0.,0.));
#833=DIRECTION('center_axis',(-1.,0.,-4.44089209850062E-15));
#834=DIRECTION('ref_axis',(6.28036983473508E-15,-0.707106781186546,-0.707106781186549));
#835=DIRECTION('center_axis',(-1.,0.,0.));
#836=DIRECTION('ref_axis',(6.28036983473508E-15,-0.707106781186546,-0.707106781186549));
#837=DIRECTION('',(-1.,0.,-4.44089209850062E-15));
#838=DIRECTION('center_axis',(1.,0.,-1.5419764230905E-15));
#839=DIRECTION('ref_axis',(6.28036983473508E-15,-0.707106781186546,-0.707106781186549));
#840=DIRECTION('',(1.,0.,4.44089209850062E-15));
#841=DIRECTION('center_axis',(1.,0.,-1.5419764230905E-15));
#842=DIRECTION('ref_axis',(-1.5419764230905E-15,0.,-1.));
#843=DIRECTION('',(0.,1.,0.));
#844=DIRECTION('',(0.,0.,-1.));
#845=DIRECTION('',(0.,1.,0.));
#846=DIRECTION('center_axis',(-1.,0.,1.5419764230905E-15));
#847=DIRECTION('ref_axis',(0.,-0.707106781186546,-0.707106781186549));
#848=DIRECTION('',(-1.5419764230905E-15,0.,-1.));
#849=DIRECTION('',(0.,1.,0.));
#850=DIRECTION('',(1.5419764230905E-15,0.,1.));
#851=DIRECTION('center_axis',(-4.44089209850062E-15,0.,1.));
#852=DIRECTION('ref_axis',(1.,0.,4.44089209850062E-15));
#853=DIRECTION('',(0.,1.,0.));
#854=DIRECTION('',(1.,0.,0.));
#855=DIRECTION('center_axis',(-1.,0.,0.));
#856=DIRECTION('ref_axis',(0.,-0.707106781186546,-0.707106781186549));
#857=DIRECTION('',(1.,0.,0.));
#858=DIRECTION('center_axis',(1.,0.,0.));
#859=DIRECTION('ref_axis',(0.,-0.707106781186546,-0.707106781186549));
#860=DIRECTION('',(-1.,0.,0.));
#861=DIRECTION('center_axis',(0.,0.,-1.));
#862=DIRECTION('ref_axis',(-1.,0.,0.));
#863=DIRECTION('',(-1.,0.,0.));
#864=DIRECTION('',(0.,1.,0.));
#865=DIRECTION('center_axis',(0.,1.,0.));
#866=DIRECTION('ref_axis',(0.,0.,1.));
#867=DIRECTION('',(1.58603289232165E-16,0.,1.));
#868=DIRECTION('',(1.,0.,0.));
#869=DIRECTION('',(0.,0.,-1.));
#870=DIRECTION('',(-1.,0.,0.));
#871=DIRECTION('',(-3.44789759200359E-16,0.,1.));
#872=DIRECTION('center_axis',(0.,1.,0.));
#873=DIRECTION('ref_axis',(0.,0.,1.));
#874=DIRECTION('',(0.,0.,1.));
#875=DIRECTION('center_axis',(0.,-1.,0.));
#876=DIRECTION('ref_axis',(-8.8817841970012E-15,0.,-1.));
#877=DIRECTION('',(-1.,0.,3.41607084500048E-16));
#878=DIRECTION('center_axis',(0.,-1.,0.));
#879=DIRECTION('ref_axis',(1.,0.,-8.88178419700113E-15));
#880=DIRECTION('',(0.,0.,-1.));
#881=DIRECTION('center_axis',(0.,-1.,0.));
#882=DIRECTION('ref_axis',(8.8817841970012E-15,0.,1.));
#883=DIRECTION('',(1.,0.,1.11022302462516E-15));
#884=DIRECTION('center_axis',(0.,-1.,0.));
#885=DIRECTION('ref_axis',(-1.,0.,-2.22044604925031E-15));
#886=DIRECTION('',(0.,0.,1.));
#887=DIRECTION('',(-1.,0.,-7.40148683083438E-16));
#888=DIRECTION('',(0.,0.,-1.));
#889=DIRECTION('center_axis',(0.,1.,0.));
#890=DIRECTION('ref_axis',(1.,0.,-4.44089209850059E-15));
#891=DIRECTION('',(-1.,0.,-8.88178419700124E-16));
#892=DIRECTION('center_axis',(0.,1.,0.));
#893=DIRECTION('ref_axis',(4.44089209850066E-15,0.,-1.));
#894=DIRECTION('',(0.,0.,1.));
#895=DIRECTION('center_axis',(0.,1.,0.));
#896=DIRECTION('ref_axis',(-1.,0.,8.88178419700117E-15));
#897=DIRECTION('',(1.,0.,0.));
#898=DIRECTION('center_axis',(0.,1.,0.));
#899=DIRECTION('ref_axis',(0.,0.,1.));
#900=DIRECTION('center_axis',(1.,0.,0.));
#901=DIRECTION('ref_axis',(0.,0.707106781186549,0.707106781186546));
#902=DIRECTION('center_axis',(-1.,0.,0.));
#903=DIRECTION('ref_axis',(0.,0.707106781186549,0.707106781186546));
#904=DIRECTION('',(1.,0.,0.));
#905=DIRECTION('center_axis',(1.,0.,0.));
#906=DIRECTION('ref_axis',(0.,0.707106781186549,0.707106781186546));
#907=DIRECTION('',(-1.,0.,0.));
#908=DIRECTION('center_axis',(0.,0.,-1.));
#909=DIRECTION('ref_axis',(1.,0.,0.));
#910=DIRECTION('',(0.,-1.,0.));
#911=DIRECTION('',(-1.,0.,0.));
#912=DIRECTION('',(0.,-1.,0.));
#913=DIRECTION('center_axis',(0.,1.,0.));
#914=DIRECTION('ref_axis',(0.,0.,1.));
#915=DIRECTION('',(-1.,0.,1.77635683940025E-16));
#916=DIRECTION('',(0.,0.,-1.));
#917=DIRECTION('',(1.,0.,1.52964061170577E-16));
#918=DIRECTION('',(2.22044604925031E-17,0.,1.));
#919=DIRECTION('',(0.,0.,1.));
#920=DIRECTION('',(1.,0.,0.));
#921=DIRECTION('',(0.,0.,-1.));
#922=DIRECTION('center_axis',(-1.77635683940025E-16,0.,-1.));
#923=DIRECTION('ref_axis',(-1.,0.,1.77635683940025E-16));
#924=DIRECTION('',(1.,0.,-1.77635683940025E-16));
#925=DIRECTION('',(0.,1.,0.));
#926=DIRECTION('',(0.,1.,0.));
#927=DIRECTION('center_axis',(-1.,0.,2.22044604925031E-17));
#928=DIRECTION('ref_axis',(2.22044604925031E-17,0.,1.));
#929=DIRECTION('',(-2.22044604925031E-17,0.,-1.));
#930=DIRECTION('',(0.,1.,0.));
#931=DIRECTION('center_axis',(-1.52964061170577E-16,0.,1.));
#932=DIRECTION('ref_axis',(1.,0.,1.52964061170577E-16));
#933=DIRECTION('',(-1.,0.,-1.52964061170577E-16));
#934=DIRECTION('',(0.,1.,0.));
#935=DIRECTION('center_axis',(1.,0.,0.));
#936=DIRECTION('ref_axis',(0.,0.,-1.));
#937=DIRECTION('',(0.,0.,1.));
#938=DIRECTION('center_axis',(0.,1.,0.));
#939=DIRECTION('ref_axis',(0.,0.,1.));
#940=DIRECTION('center_axis',(0.,1.,0.));
#941=DIRECTION('ref_axis',(0.,0.,1.));
#942=DIRECTION('center_axis',(0.,-1.,0.));
#943=DIRECTION('ref_axis',(0.,0.,1.));
#944=DIRECTION('',(0.,1.,0.));
#945=DIRECTION('center_axis',(0.,0.,1.));
#946=DIRECTION('ref_axis',(1.,0.,0.));
#947=DIRECTION('',(-1.,0.,0.));
#948=DIRECTION('',(0.,1.,0.));
#949=DIRECTION('center_axis',(0.,1.,0.));
#950=DIRECTION('ref_axis',(-1.,0.,8.88178419700117E-15));
#951=DIRECTION('center_axis',(0.,-1.,0.));
#952=DIRECTION('ref_axis',(-1.,0.,8.88178419700117E-15));
#953=DIRECTION('',(0.,1.,0.));
#954=DIRECTION('center_axis',(-1.,0.,0.));
#955=DIRECTION('ref_axis',(0.,0.,1.));
#956=DIRECTION('',(0.,0.,-1.));
#957=DIRECTION('',(0.,1.,0.));
#958=DIRECTION('center_axis',(0.,1.,0.));
#959=DIRECTION('ref_axis',(4.44089209850066E-15,0.,-1.));
#960=DIRECTION('center_axis',(0.,-1.,0.));
#961=DIRECTION('ref_axis',(4.44089209850066E-15,0.,-1.));
#962=DIRECTION('',(0.,1.,0.));
#963=DIRECTION('center_axis',(8.88178419700124E-16,0.,-1.));
#964=DIRECTION('ref_axis',(-1.,0.,-8.88178419700124E-16));
#965=DIRECTION('',(1.,0.,8.88178419700124E-16));
#966=DIRECTION('',(0.,1.,0.));
#967=DIRECTION('center_axis',(0.,1.,0.));
#968=DIRECTION('ref_axis',(1.,0.,-4.44089209850059E-15));
#969=DIRECTION('center_axis',(0.,-1.,0.));
#970=DIRECTION('ref_axis',(1.,0.,-4.44089209850059E-15));
#971=DIRECTION('',(0.,1.,0.));
#972=DIRECTION('center_axis',(1.,0.,0.));
#973=DIRECTION('ref_axis',(0.,0.,-1.));
#974=DIRECTION('',(0.,-1.,0.));
#975=DIRECTION('center_axis',(7.40148683083438E-16,0.,-1.));
#976=DIRECTION('ref_axis',(-1.,0.,-7.40148683083438E-16));
#977=DIRECTION('',(0.,-1.,0.));
#978=DIRECTION('center_axis',(-1.,0.,0.));
#979=DIRECTION('ref_axis',(0.,0.,1.));
#980=DIRECTION('',(0.,1.,0.));
#981=DIRECTION('',(0.,0.,-1.));
#982=DIRECTION('center_axis',(0.,1.,0.));
#983=DIRECTION('ref_axis',(-1.,0.,-2.22044604925031E-15));
#984=DIRECTION('center_axis',(0.,1.,0.));
#985=DIRECTION('ref_axis',(-1.,0.,-2.22044604925031E-15));
#986=DIRECTION('',(0.,1.,0.));
#987=DIRECTION('center_axis',(-1.11022302462516E-15,0.,1.));
#988=DIRECTION('ref_axis',(1.,0.,1.11022302462516E-15));
#989=DIRECTION('',(-1.,0.,-1.11022302462516E-15));
#990=DIRECTION('',(0.,1.,0.));
#991=DIRECTION('center_axis',(0.,1.,0.));
#992=DIRECTION('ref_axis',(8.8817841970012E-15,0.,1.));
#993=DIRECTION('center_axis',(0.,1.,0.));
#994=DIRECTION('ref_axis',(8.8817841970012E-15,0.,1.));
#995=DIRECTION('',(0.,1.,0.));
#996=DIRECTION('center_axis',(1.,0.,0.));
#997=DIRECTION('ref_axis',(0.,0.,-1.));
#998=DIRECTION('',(0.,0.,1.));
#999=DIRECTION('',(0.,1.,0.));
#1000=DIRECTION('center_axis',(0.,1.,0.));
#1001=DIRECTION('ref_axis',(1.,0.,-8.88178419700113E-15));
#1002=DIRECTION('center_axis',(0.,1.,0.));
#1003=DIRECTION('ref_axis',(1.,0.,-8.88178419700113E-15));
#1004=DIRECTION('',(0.,1.,0.));
#1005=DIRECTION('center_axis',(-3.41607084500048E-16,0.,-1.));
#1006=DIRECTION('ref_axis',(-1.,0.,3.41607084500048E-16));
#1007=DIRECTION('',(1.,0.,-3.41607084500048E-16));
#1008=DIRECTION('',(0.,1.,0.));
#1009=DIRECTION('center_axis',(0.,1.,0.));
#1010=DIRECTION('ref_axis',(-8.8817841970012E-15,0.,-1.));
#1011=DIRECTION('center_axis',(0.,1.,0.));
#1012=DIRECTION('ref_axis',(-8.8817841970012E-15,0.,-1.));
#1013=DIRECTION('',(0.,1.,0.));
#1014=DIRECTION('center_axis',(-1.,0.,0.));
#1015=DIRECTION('ref_axis',(0.,0.,1.));
#1016=DIRECTION('',(0.,0.,-1.));
#1017=DIRECTION('center_axis',(0.,1.,0.));
#1018=DIRECTION('ref_axis',(0.,0.,1.));
#1019=DIRECTION('',(1.58603289232165E-16,0.,1.));
#1020=DIRECTION('',(-1.,0.,-7.93016446160826E-17));
#1021=DIRECTION('',(-3.37031989618351E-16,0.,-1.));
#1022=DIRECTION('',(1.,0.,-1.58603289232165E-16));
#1023=DIRECTION('center_axis',(-1.,0.,1.58603289232165E-16));
#1024=DIRECTION('ref_axis',(1.58603289232165E-16,0.,1.));
#1025=DIRECTION('',(0.,1.,0.));
#1026=DIRECTION('',(0.,1.,0.));
#1027=DIRECTION('center_axis',(1.58603289232165E-16,0.,1.));
#1028=DIRECTION('ref_axis',(1.,0.,-1.58603289232165E-16));
#1029=DIRECTION('',(0.,1.,0.));
#1030=DIRECTION('center_axis',(1.,0.,-3.37031989618351E-16));
#1031=DIRECTION('ref_axis',(-3.37031989618351E-16,0.,-1.));
#1032=DIRECTION('',(0.,1.,0.));
#1033=DIRECTION('center_axis',(7.93016446160826E-17,0.,-1.));
#1034=DIRECTION('ref_axis',(-1.,0.,-7.93016446160826E-17));
#1035=DIRECTION('center_axis',(0.,1.,0.));
#1036=DIRECTION('ref_axis',(0.,0.,1.));
#1037=CARTESIAN_POINT('',(0.,0.,0.));
#1038=CARTESIAN_POINT('Origin',(-26.5,15.,24.1316786177785));
#1039=CARTESIAN_POINT('',(-22.,15.,23.1316786177785));
#1040=CARTESIAN_POINT('',(-22.,14.,24.1316786177785));
#1041=CARTESIAN_POINT('Origin',(-22.,15.,24.1316786177785));
#1042=CARTESIAN_POINT('',(-28.,15.,23.1316786177785));
#1043=CARTESIAN_POINT('',(-26.5,15.,23.1316786177785));
#1044=CARTESIAN_POINT('',(-28.,14.,24.1316786177785));
#1045=CARTESIAN_POINT('Origin',(-28.,15.,24.1316786177785));
#1046=CARTESIAN_POINT('',(-26.5,14.,24.1316786177785));
#1047=CARTESIAN_POINT('Origin',(-28.,14.,30.0116786177785));
#1048=CARTESIAN_POINT('',(-28.,21.,23.1316786177785));
#1049=CARTESIAN_POINT('',(-28.,14.,23.1316786177785));
#1050=CARTESIAN_POINT('',(-28.,21.,27.1316786177785));
#1051=CARTESIAN_POINT('',(-28.,21.,27.1316786177785));
#1052=CARTESIAN_POINT('',(-28.,19.,27.1316786177785));
#1053=CARTESIAN_POINT('',(-28.,18.,27.1316786177785));
#1054=CARTESIAN_POINT('',(-28.,18.,28.1316786177785));
#1055=CARTESIAN_POINT('Origin',(-28.,19.,28.1316786177785));
#1056=CARTESIAN_POINT('',(-28.,18.,30.0116786177785));
#1057=CARTESIAN_POINT('',(-28.,18.,30.0116786177785));
#1058=CARTESIAN_POINT('',(-28.,14.,30.0116786177785));
#1059=CARTESIAN_POINT('',(-28.,14.,30.0116786177785));
#1060=CARTESIAN_POINT('',(-28.,14.,27.5058393088892));
#1061=CARTESIAN_POINT('Origin',(-28.,14.,23.1316786177785));
#1062=CARTESIAN_POINT('',(-22.,21.,23.1316786177785));
#1063=CARTESIAN_POINT('',(-22.,14.,23.1316786177785));
#1064=CARTESIAN_POINT('',(-28.,21.,23.1316786177785));
#1065=CARTESIAN_POINT('Origin',(-23.5,19.,28.1316786177785));
#1066=CARTESIAN_POINT('',(-22.,19.,27.1316786177785));
#1067=CARTESIAN_POINT('',(-23.5,19.,27.1316786177785));
#1068=CARTESIAN_POINT('',(-22.,18.,28.1316786177785));
#1069=CARTESIAN_POINT('Origin',(-22.,19.,28.1316786177785));
#1070=CARTESIAN_POINT('',(-23.5,18.,28.1316786177785));
#1071=CARTESIAN_POINT('Origin',(-22.,18.,27.1316786177785));
#1072=CARTESIAN_POINT('',(-22.,21.,27.1316786177785));
#1073=CARTESIAN_POINT('',(-22.,21.,27.1316786177785));
#1074=CARTESIAN_POINT('',(-22.,18.,27.1316786177785));
#1075=CARTESIAN_POINT('Origin',(-25.,21.,25.));
#1076=CARTESIAN_POINT('',(-53.,21.,-3.));
#1077=CARTESIAN_POINT('',(-53.,21.,53.));
#1078=CARTESIAN_POINT('',(-53.,21.,-3.));
#1079=CARTESIAN_POINT('',(2.99999999999999,21.,53.));
#1080=CARTESIAN_POINT('',(-53.,21.,53.));
#1081=CARTESIAN_POINT('',(2.99999999999999,21.,-3.));
#1082=CARTESIAN_POINT('',(2.99999999999999,21.,53.));
#1083=CARTESIAN_POINT('',(2.99999999999999,21.,-3.));
#1084=CARTESIAN_POINT('',(-22.,21.,23.1316786177785));
#1085=CARTESIAN_POINT('Origin',(-25.,18.,25.));
#1086=CARTESIAN_POINT('',(-22.,18.,36.0116786177785));
#1087=CARTESIAN_POINT('',(-22.,18.,23.1316786177785));
#1088=CARTESIAN_POINT('',(-23.,18.,37.0116786177785));
#1089=CARTESIAN_POINT('Origin',(-23.,18.,36.0116786177785));
#1090=CARTESIAN_POINT('',(-36.,18.,37.0116786177785));
#1091=CARTESIAN_POINT('',(-23.,18.,37.0116786177785));
#1092=CARTESIAN_POINT('',(-37.,18.,36.0116786177785));
#1093=CARTESIAN_POINT('Origin',(-36.,18.,36.0116786177785));
#1094=CARTESIAN_POINT('',(-37.,18.,16.7916786177785));
#1095=CARTESIAN_POINT('',(-37.,18.,36.0116786177785));
#1096=CARTESIAN_POINT('',(-36.,18.,15.7916786177785));
#1097=CARTESIAN_POINT('Origin',(-36.,18.,16.7916786177785));
#1098=CARTESIAN_POINT('',(-14.,18.,15.7916786177785));
#1099=CARTESIAN_POINT('',(-36.,18.,15.7916786177785));
#1100=CARTESIAN_POINT('',(-13.,18.,16.7916786177785));
#1101=CARTESIAN_POINT('Origin',(-14.,18.,16.7916786177785));
#1102=CARTESIAN_POINT('',(-13.,18.,27.1316786177785));
#1103=CARTESIAN_POINT('',(-13.,18.,16.7916786177785));
#1104=CARTESIAN_POINT('',(-19.,18.,27.1316786177785));
#1105=CARTESIAN_POINT('',(-13.,18.,27.1316786177785));
#1106=CARTESIAN_POINT('',(-19.,18.,22.7916786177785));
#1107=CARTESIAN_POINT('',(-19.,18.,27.1316786177785));
#1108=CARTESIAN_POINT('',(-20.,18.,21.7916786177785));
#1109=CARTESIAN_POINT('Origin',(-20.,18.,22.7916786177785));
#1110=CARTESIAN_POINT('',(-30.,18.,21.7916786177785));
#1111=CARTESIAN_POINT('',(-20.,18.,21.7916786177785));
#1112=CARTESIAN_POINT('',(-31.,18.,22.7916786177785));
#1113=CARTESIAN_POINT('Origin',(-30.,18.,22.7916786177785));
#1114=CARTESIAN_POINT('',(-31.,18.,30.0116786177785));
#1115=CARTESIAN_POINT('',(-31.,18.,22.7916786177785));
#1116=CARTESIAN_POINT('',(-30.,18.,31.0116786177785));
#1117=CARTESIAN_POINT('Origin',(-30.,18.,30.0116786177785));
#1118=CARTESIAN_POINT('',(-29.,18.,31.0116786177785));
#1119=CARTESIAN_POINT('',(-30.,18.,31.0116786177785));
#1120=CARTESIAN_POINT('Origin',(-29.,18.,30.0116786177785));
#1121=CARTESIAN_POINT('Origin',(-22.,13.,22.1316786177785));
#1122=CARTESIAN_POINT('',(-19.,13.7512655988397,22.7916786177785));
#1123=CARTESIAN_POINT('',(-19.,13.,23.1316786177785));
#1124=CARTESIAN_POINT('Origin',(-19.,13.,22.1316786177785));
#1125=CARTESIAN_POINT('',(-13.,13.,23.1316786177785));
#1126=CARTESIAN_POINT('',(-22.,13.,23.1316786177785));
#1127=CARTESIAN_POINT('',(-13.,14.,22.1316786177785));
#1128=CARTESIAN_POINT('Origin',(-13.,13.,22.1316786177785));
#1129=CARTESIAN_POINT('',(-19.2487344011603,14.,22.1316786177785));
#1130=CARTESIAN_POINT('',(-22.,14.,22.1316786177785));
#1131=CARTESIAN_POINT('Ctrl Pts',(-19.,13.7512655988398,22.7916786177784));
#1132=CARTESIAN_POINT('Ctrl Pts',(-19.,13.7753757293231,22.7642345092698));
#1133=CARTESIAN_POINT('Ctrl Pts',(-19.0011336437311,13.7978391123475,22.7356245791527));
#1134=CARTESIAN_POINT('Ctrl Pts',(-19.0090999325181,13.8629558353895,22.6428406054644));
#1135=CARTESIAN_POINT('Ctrl Pts',(-19.0219349264912,13.9027401765139,22.5692372559895));
#1136=CARTESIAN_POINT('Ctrl Pts',(-19.0682903442586,13.9608133357568,22.4201835490321));
#1137=CARTESIAN_POINT('Ctrl Pts',(-19.1020653968659,13.9792843067844,22.3448835519552));
#1138=CARTESIAN_POINT('Ctrl Pts',(-19.1724029093956,13.9968077007009,22.2271296891059));
#1139=CARTESIAN_POINT('Ctrl Pts',(-19.2083334467438,14.,22.1776662650715));
#1140=CARTESIAN_POINT('Ctrl Pts',(-19.2487344011603,14.,22.1316786177785));
#1141=CARTESIAN_POINT('Origin',(-19.,14.,23.1316786177785));
#1142=CARTESIAN_POINT('',(-19.,11.,23.1316786177785));
#1143=CARTESIAN_POINT('',(-19.,14.,23.1316786177785));
#1144=CARTESIAN_POINT('',(-13.,11.,23.1316786177785));
#1145=CARTESIAN_POINT('',(-22.,11.,23.1316786177785));
#1146=CARTESIAN_POINT('',(-13.,14.,23.1316786177785));
#1147=CARTESIAN_POINT('Origin',(-25.,11.,25.));
#1148=CARTESIAN_POINT('',(1.88737914186277E-14,11.,50.));
#1149=CARTESIAN_POINT('',(-50.,11.,50.));
#1150=CARTESIAN_POINT('',(1.77635683940025E-14,11.,50.));
#1151=CARTESIAN_POINT('',(-50.,11.,-2.66453525910038E-14));
#1152=CARTESIAN_POINT('',(-50.,11.,50.));
#1153=CARTESIAN_POINT('',(1.77635683940025E-14,11.,-2.66453525910038E-14));
#1154=CARTESIAN_POINT('',(-50.,11.,-3.05311331771918E-14));
#1155=CARTESIAN_POINT('',(1.77635683940025E-14,11.,-2.66453525910038E-14));
#1156=CARTESIAN_POINT('',(-19.,11.,27.1316786177785));
#1157=CARTESIAN_POINT('',(-19.,11.,26.0658393088892));
#1158=CARTESIAN_POINT('',(-13.,11.,27.1316786177785));
#1159=CARTESIAN_POINT('',(-19.,11.,27.1316786177785));
#1160=CARTESIAN_POINT('',(-13.,11.,24.0658393088892));
#1161=CARTESIAN_POINT('Origin',(1.88737914186277E-14,3.,50.));
#1162=CARTESIAN_POINT('',(-50.,3.,50.));
#1163=CARTESIAN_POINT('',(1.88737914186277E-14,3.,50.));
#1164=CARTESIAN_POINT('',(-12.5,3.,50.));
#1165=CARTESIAN_POINT('',(-50.,3.,50.));
#1166=CARTESIAN_POINT('',(1.88737914186277E-14,3.,50.));
#1167=CARTESIAN_POINT('Origin',(1.77635683940025E-14,3.,-2.2882930118663E-14));
#1168=CARTESIAN_POINT('',(1.77635683940025E-14,3.,-2.2882930118663E-14));
#1169=CARTESIAN_POINT('',(1.77635683940025E-14,3.,12.5));
#1170=CARTESIAN_POINT('',(1.77635683940025E-14,3.,-2.2882930118663E-14));
#1171=CARTESIAN_POINT('Origin',(-50.,3.,-3.05311331771918E-14));
#1172=CARTESIAN_POINT('',(-50.,3.,-3.05311331771918E-14));
#1173=CARTESIAN_POINT('',(-37.5,3.,-2.88657986402541E-14));
#1174=CARTESIAN_POINT('',(-50.,3.,-3.05311331771918E-14));
#1175=CARTESIAN_POINT('Origin',(-50.,3.,50.));
#1176=CARTESIAN_POINT('',(-50.,3.,37.5));
#1177=CARTESIAN_POINT('Origin',(-25.,3.,25.));
#1178=CARTESIAN_POINT('Origin',(-29.,14.,30.0116786177785));
#1179=CARTESIAN_POINT('',(-29.,14.,31.0116786177785));
#1180=CARTESIAN_POINT('Origin',(-29.,14.,30.0116786177785));
#1181=CARTESIAN_POINT('',(-29.,14.,31.0116786177785));
#1182=CARTESIAN_POINT('Origin',(-30.,14.,31.0116786177785));
#1183=CARTESIAN_POINT('',(-30.,14.,31.0116786177785));
#1184=CARTESIAN_POINT('',(-27.5,14.,31.0116786177785));
#1185=CARTESIAN_POINT('',(-30.,14.,31.0116786177785));
#1186=CARTESIAN_POINT('Origin',(-30.,14.,30.0116786177785));
#1187=CARTESIAN_POINT('',(-31.,14.,30.0116786177785));
#1188=CARTESIAN_POINT('Origin',(-30.,14.,30.0116786177785));
#1189=CARTESIAN_POINT('',(-31.,14.,30.0116786177785));
#1190=CARTESIAN_POINT('Origin',(-31.,14.,22.7916786177785));
#1191=CARTESIAN_POINT('',(-31.,14.,22.7916786177785));
#1192=CARTESIAN_POINT('',(-31.,14.,23.8958393088892));
#1193=CARTESIAN_POINT('',(-31.,14.,22.7916786177785));
#1194=CARTESIAN_POINT('Origin',(-30.,14.,22.7916786177785));
#1195=CARTESIAN_POINT('',(-30.,14.,21.7916786177785));
#1196=CARTESIAN_POINT('Origin',(-30.,14.,22.7916786177785));
#1197=CARTESIAN_POINT('',(-30.,14.,21.7916786177785));
#1198=CARTESIAN_POINT('Origin',(-20.,14.,21.7916786177785));
#1199=CARTESIAN_POINT('',(-20.,14.,21.7916786177785));
#1200=CARTESIAN_POINT('',(-22.5,14.,21.7916786177785));
#1201=CARTESIAN_POINT('',(-20.,14.,21.7916786177785));
#1202=CARTESIAN_POINT('Origin',(-20.,14.,22.7916786177785));
#1203=CARTESIAN_POINT('Origin',(-20.,14.,22.7916786177785));
#1204=CARTESIAN_POINT('',(-19.,14.,22.7916786177785));
#1205=CARTESIAN_POINT('Origin',(-19.,14.,27.1316786177785));
#1206=CARTESIAN_POINT('',(-19.,14.,27.1316786177785));
#1207=CARTESIAN_POINT('Origin',(-13.,14.,27.1316786177785));
#1208=CARTESIAN_POINT('',(-13.,14.,27.1316786177785));
#1209=CARTESIAN_POINT('Origin',(-13.,14.,16.7916786177785));
#1210=CARTESIAN_POINT('',(-13.,14.,16.7916786177785));
#1211=CARTESIAN_POINT('',(-13.,14.,16.7916786177785));
#1212=CARTESIAN_POINT('',(-13.,14.,20.8958393088892));
#1213=CARTESIAN_POINT('Origin',(-14.,14.,16.7916786177785));
#1214=CARTESIAN_POINT('',(-14.,14.,15.7916786177785));
#1215=CARTESIAN_POINT('Origin',(-14.,14.,16.7916786177785));
#1216=CARTESIAN_POINT('',(-14.,14.,15.7916786177785));
#1217=CARTESIAN_POINT('Origin',(-36.,14.,15.7916786177785));
#1218=CARTESIAN_POINT('',(-36.,14.,15.7916786177785));
#1219=CARTESIAN_POINT('',(-30.5,14.,15.7916786177785));
#1220=CARTESIAN_POINT('',(-36.,14.,15.7916786177785));
#1221=CARTESIAN_POINT('Origin',(-36.,14.,16.7916786177785));
#1222=CARTESIAN_POINT('',(-37.,14.,16.7916786177785));
#1223=CARTESIAN_POINT('Origin',(-36.,14.,16.7916786177785));
#1224=CARTESIAN_POINT('',(-37.,14.,16.7916786177785));
#1225=CARTESIAN_POINT('Origin',(-37.,14.,36.0116786177785));
#1226=CARTESIAN_POINT('',(-37.,14.,36.0116786177785));
#1227=CARTESIAN_POINT('',(-37.,14.,30.5058393088892));
#1228=CARTESIAN_POINT('',(-37.,14.,36.0116786177785));
#1229=CARTESIAN_POINT('Origin',(-36.,14.,36.0116786177785));
#1230=CARTESIAN_POINT('',(-36.,14.,37.0116786177785));
#1231=CARTESIAN_POINT('Origin',(-36.,14.,36.0116786177785));
#1232=CARTESIAN_POINT('',(-36.,14.,37.0116786177785));
#1233=CARTESIAN_POINT('Origin',(-23.,14.,37.0116786177785));
#1234=CARTESIAN_POINT('',(-23.,14.,37.0116786177785));
#1235=CARTESIAN_POINT('',(-24.,14.,37.0116786177785));
#1236=CARTESIAN_POINT('',(-23.,14.,37.0116786177785));
#1237=CARTESIAN_POINT('Origin',(-23.,14.,36.0116786177785));
#1238=CARTESIAN_POINT('',(-22.,14.,36.0116786177785));
#1239=CARTESIAN_POINT('Origin',(-23.,14.,36.0116786177785));
#1240=CARTESIAN_POINT('',(-22.,14.,36.0116786177785));
#1241=CARTESIAN_POINT('Origin',(-22.,14.,23.1316786177785));
#1242=CARTESIAN_POINT('',(-22.,14.,24.0658393088892));
#1243=CARTESIAN_POINT('Origin',(-25.,0.,25.));
#1244=CARTESIAN_POINT('',(-53.,0.,-3.));
#1245=CARTESIAN_POINT('',(-53.,0.,53.));
#1246=CARTESIAN_POINT('',(-53.,0.,-3.));
#1247=CARTESIAN_POINT('',(2.99999999999999,0.,-3.));
#1248=CARTESIAN_POINT('',(2.99999999999999,0.,-3.));
#1249=CARTESIAN_POINT('',(3.00000000000001,0.,53.));
#1250=CARTESIAN_POINT('',(3.00000000000001,0.,53.));
#1251=CARTESIAN_POINT('',(-53.,0.,53.));
#1252=CARTESIAN_POINT('Origin',(-53.,0.,-3.));
#1253=CARTESIAN_POINT('',(-53.,0.,53.));
#1254=CARTESIAN_POINT('',(-53.,0.,-3.));
#1255=CARTESIAN_POINT('Origin',(-53.,0.,53.));
#1256=CARTESIAN_POINT('',(3.00000000000001,0.,53.));
#1257=CARTESIAN_POINT('Origin',(3.00000000000001,0.,53.));
#1258=CARTESIAN_POINT('',(2.99999999999999,0.,-3.));
#1259=CARTESIAN_POINT('Origin',(2.99999999999999,0.,-3.));
#1260=CARTESIAN_POINT('Origin',(-25.,14.,25.));
#1261=UNCERTAINTY_MEASURE_WITH_UNIT(LENGTH_MEASURE(0.01),#1265,
'DISTANCE_ACCURACY_VALUE',
'Maximum model space distance between geometric entities at asserted c
onnectivities');
#1262=UNCERTAINTY_MEASURE_WITH_UNIT(LENGTH_MEASURE(0.01),#1265,
'DISTANCE_ACCURACY_VALUE',
'Maximum model space distance between geometric entities at asserted c
onnectivities');
#1263=(
GEOMETRIC_REPRESENTATION_CONTEXT(3)
GLOBAL_UNCERTAINTY_ASSIGNED_CONTEXT((#1261))
GLOBAL_UNIT_ASSIGNED_CONTEXT((#1265,#1267,#1268))
REPRESENTATION_CONTEXT('','3D')
);
#1264=(
GEOMETRIC_REPRESENTATION_CONTEXT(3)
GLOBAL_UNCERTAINTY_ASSIGNED_CONTEXT((#1262))
GLOBAL_UNIT_ASSIGNED_CONTEXT((#1265,#1267,#1268))
REPRESENTATION_CONTEXT('','3D')
);
#1265=(
LENGTH_UNIT()
NAMED_UNIT(*)
SI_UNIT(.MILLI.,.METRE.)
);
#1266=(
LENGTH_UNIT()
NAMED_UNIT(*)
SI_UNIT(.CENTI.,.METRE.)
);
#1267=(
NAMED_UNIT(*)
PLANE_ANGLE_UNIT()
SI_UNIT($,.RADIAN.)
);
#1268=(
NAMED_UNIT(*)
SI_UNIT($,.STERADIAN.)
SOLID_ANGLE_UNIT()
);
#1269=SHAPE_DEFINITION_REPRESENTATION(#1270,#1271);
#1270=PRODUCT_DEFINITION_SHAPE('',$,#1273);
#1271=SHAPE_REPRESENTATION('',(#769),#1263);
#1272=PRODUCT_DEFINITION_CONTEXT('part definition',#1277,'design');
#1273=PRODUCT_DEFINITION('250Hz','250Hz',#1274,#1272);
#1274=PRODUCT_DEFINITION_FORMATION('',$,#1279);
#1275=PRODUCT_RELATED_PRODUCT_CATEGORY('250Hz','250Hz',(#1279));
#1276=APPLICATION_PROTOCOL_DEFINITION('international standard',
'automotive_design',2009,#1277);
#1277=APPLICATION_CONTEXT(
'Core Data for Automotive Mechanical Design Process');
#1278=PRODUCT_CONTEXT('part definition',#1277,'mechanical');
#1279=PRODUCT('250Hz','250Hz',$,(#1278));
#1280=PRESENTATION_STYLE_ASSIGNMENT((#1281));
#1281=SURFACE_STYLE_USAGE(.BOTH.,#1284);
#1282=SURFACE_STYLE_RENDERING_WITH_PROPERTIES($,#1288,(#1283));
#1283=SURFACE_STYLE_TRANSPARENT(0.339999973773956);
#1284=SURFACE_SIDE_STYLE('',(#1285,#1282));
#1285=SURFACE_STYLE_FILL_AREA(#1286);
#1286=FILL_AREA_STYLE('',(#1287));
#1287=FILL_AREA_STYLE_COLOUR('',#1288);
#1288=COLOUR_RGB('',0.925490196078431,0.945098039215686,0.937254901960784);
ENDSEC;
END-ISO-10303-21;
