ISO-10303-21;
HEADER;
/* Generated by software containing ST-Developer
 * from STEP Tools, Inc. (www.steptools.com) 
 */

FILE_DESCRIPTION(
/* description */ (''),
/* implementation_level */ '2;1');

FILE_NAME(
/* name */ '250Hz-negative.stp',
/* time_stamp */ '2026-06-03T09:24:16-04:00',
/* author */ ('brand'),
/* organization */ (''),
/* preprocessor_version */ 'ST-DEVELOPER v20.1',
/* originating_system */ 'Autodesk Inventor 2027',
/* authorisation */ '');

FILE_SCHEMA (('AUTOMOTIVE_DESIGN { 1 0 10303 214 3 1 1 }'));
ENDSEC;

DATA;
#10=MECHANICAL_DESIGN_GEOMETRIC_PRESENTATION_REPRESENTATION('',(#622,#623,
#624,#625,#626,#627,#628,#629,#630,#631,#632,#633,#634,#635,#636,#637,#638,
#639,#640,#641,#642,#643,#644,#645,#646,#647,#648,#649,#650,#651,#652,#653,
#654,#655),#1155);
#11=SHAPE_REPRESENTATION_RELATIONSHIP('SRR','None',#1162,#12);
#12=ADVANCED_BREP_SHAPE_REPRESENTATION('',(#13),#1154);
#13=MANIFOLD_SOLID_BREP('Solid6',#690);
#14=FACE_BOUND('',#82,.T.);
#15=B_SPLINE_CURVE_WITH_KNOTS('',3,(#1032,#1033,#1034,#1035,#1036,#1037,
#1038,#1039,#1040,#1041),.UNSPECIFIED.,.F.,.F.,(4,2,2,2,4),(0.810607690866331,
0.821442568595317,0.844697665397181,0.867952762199046,0.886180633585652),
 .UNSPECIFIED.);
#16=PLANE('',#716);
#17=PLANE('',#718);
#18=PLANE('',#721);
#19=PLANE('',#722);
#20=PLANE('',#734);
#21=PLANE('',#735);
#22=PLANE('',#736);
#23=PLANE('',#737);
#24=PLANE('',#738);
#25=PLANE('',#739);
#26=PLANE('',#740);
#27=PLANE('',#743);
#28=PLANE('',#746);
#29=PLANE('',#749);
#30=PLANE('',#752);
#31=PLANE('',#753);
#32=PLANE('',#754);
#33=PLANE('',#757);
#34=PLANE('',#760);
#35=PLANE('',#763);
#36=PLANE('',#766);
#37=PLANE('',#767);
#38=PLANE('',#768);
#39=FACE_OUTER_BOUND('',#73,.T.);
#40=FACE_OUTER_BOUND('',#74,.T.);
#41=FACE_OUTER_BOUND('',#75,.T.);
#42=FACE_OUTER_BOUND('',#76,.T.);
#43=FACE_OUTER_BOUND('',#77,.T.);
#44=FACE_OUTER_BOUND('',#78,.T.);
#45=FACE_OUTER_BOUND('',#79,.T.);
#46=FACE_OUTER_BOUND('',#80,.T.);
#47=FACE_OUTER_BOUND('',#81,.T.);
#48=FACE_OUTER_BOUND('',#83,.T.);
#49=FACE_OUTER_BOUND('',#84,.T.);
#50=FACE_OUTER_BOUND('',#85,.T.);
#51=FACE_OUTER_BOUND('',#86,.T.);
#52=FACE_OUTER_BOUND('',#87,.T.);
#53=FACE_OUTER_BOUND('',#88,.T.);
#54=FACE_OUTER_BOUND('',#89,.T.);
#55=FACE_OUTER_BOUND('',#90,.T.);
#56=FACE_OUTER_BOUND('',#91,.T.);
#57=FACE_OUTER_BOUND('',#92,.T.);
#58=FACE_OUTER_BOUND('',#93,.T.);
#59=FACE_OUTER_BOUND('',#94,.T.);
#60=FACE_OUTER_BOUND('',#95,.T.);
#61=FACE_OUTER_BOUND('',#96,.T.);
#62=FACE_OUTER_BOUND('',#97,.T.);
#63=FACE_OUTER_BOUND('',#98,.T.);
#64=FACE_OUTER_BOUND('',#99,.T.);
#65=FACE_OUTER_BOUND('',#100,.T.);
#66=FACE_OUTER_BOUND('',#101,.T.);
#67=FACE_OUTER_BOUND('',#102,.T.);
#68=FACE_OUTER_BOUND('',#103,.T.);
#69=FACE_OUTER_BOUND('',#104,.T.);
#70=FACE_OUTER_BOUND('',#105,.T.);
#71=FACE_OUTER_BOUND('',#106,.T.);
#72=FACE_OUTER_BOUND('',#107,.T.);
#73=EDGE_LOOP('',(#425,#426,#427,#428));
#74=EDGE_LOOP('',(#429,#430,#431,#432,#433,#434,#435,#436));
#75=EDGE_LOOP('',(#437,#438,#439,#440));
#76=EDGE_LOOP('',(#441,#442,#443,#444));
#77=EDGE_LOOP('',(#445,#446,#447,#448));
#78=EDGE_LOOP('',(#449,#450,#451,#452,#453,#454,#455,#456,#457,#458,#459,
#460,#461,#462,#463,#464,#465,#466,#467,#468));
#79=EDGE_LOOP('',(#469,#470,#471,#472,#473));
#80=EDGE_LOOP('',(#474,#475,#476,#477));
#81=EDGE_LOOP('',(#478,#479,#480,#481));
#82=EDGE_LOOP('',(#482,#483,#484,#485));
#83=EDGE_LOOP('',(#486,#487,#488,#489));
#84=EDGE_LOOP('',(#490,#491,#492,#493));
#85=EDGE_LOOP('',(#494,#495,#496,#497));
#86=EDGE_LOOP('',(#498,#499,#500,#501));
#87=EDGE_LOOP('',(#502,#503,#504,#505));
#88=EDGE_LOOP('',(#506,#507,#508,#509));
#89=EDGE_LOOP('',(#510,#511,#512,#513));
#90=EDGE_LOOP('',(#514,#515,#516,#517));
#91=EDGE_LOOP('',(#518,#519,#520,#521));
#92=EDGE_LOOP('',(#522,#523,#524,#525));
#93=EDGE_LOOP('',(#526,#527,#528,#529));
#94=EDGE_LOOP('',(#530,#531,#532,#533,#534));
#95=EDGE_LOOP('',(#535,#536,#537,#538,#539,#540));
#96=EDGE_LOOP('',(#541,#542,#543,#544));
#97=EDGE_LOOP('',(#545,#546,#547,#548,#549,#550,#551));
#98=EDGE_LOOP('',(#552,#553,#554,#555));
#99=EDGE_LOOP('',(#556,#557,#558,#559));
#100=EDGE_LOOP('',(#560,#561,#562,#563));
#101=EDGE_LOOP('',(#564,#565,#566,#567));
#102=EDGE_LOOP('',(#568,#569,#570,#571));
#103=EDGE_LOOP('',(#572,#573,#574,#575));
#104=EDGE_LOOP('',(#576,#577,#578,#579));
#105=EDGE_LOOP('',(#580,#581,#582,#583,#584,#585,#586,#587));
#106=EDGE_LOOP('',(#588,#589,#590,#591,#592,#593,#594,#595,#596,#597,#598,
#599,#600,#601,#602,#603,#604,#605,#606));
#107=EDGE_LOOP('',(#607,#608,#609,#610));
#108=LINE('',#959,#178);
#109=LINE('',#962,#179);
#110=LINE('',#965,#180);
#111=LINE('',#967,#181);
#112=LINE('',#969,#182);
#113=LINE('',#973,#183);
#114=LINE('',#975,#184);
#115=LINE('',#976,#185);
#116=LINE('',#979,#186);
#117=LINE('',#980,#187);
#118=LINE('',#983,#188);
#119=LINE('',#986,#189);
#120=LINE('',#989,#190);
#121=LINE('',#990,#191);
#122=LINE('',#995,#192);
#123=LINE('',#999,#193);
#124=LINE('',#1003,#194);
#125=LINE('',#1007,#195);
#126=LINE('',#1009,#196);
#127=LINE('',#1011,#197);
#128=LINE('',#1015,#198);
#129=LINE('',#1019,#199);
#130=LINE('',#1023,#200);
#131=LINE('',#1026,#201);
#132=LINE('',#1043,#202);
#133=LINE('',#1046,#203);
#134=LINE('',#1049,#204);
#135=LINE('',#1051,#205);
#136=LINE('',#1052,#206);
#137=LINE('',#1056,#207);
#138=LINE('',#1058,#208);
#139=LINE('',#1060,#209);
#140=LINE('',#1061,#210);
#141=LINE('',#1063,#211);
#142=LINE('',#1065,#212);
#143=LINE('',#1066,#213);
#144=LINE('',#1070,#214);
#145=LINE('',#1071,#215);
#146=LINE('',#1072,#216);
#147=LINE('',#1075,#217);
#148=LINE('',#1076,#218);
#149=LINE('',#1079,#219);
#150=LINE('',#1080,#220);
#151=LINE('',#1082,#221);
#152=LINE('',#1087,#222);
#153=LINE('',#1090,#223);
#154=LINE('',#1091,#224);
#155=LINE('',#1095,#225);
#156=LINE('',#1098,#226);
#157=LINE('',#1099,#227);
#158=LINE('',#1103,#228);
#159=LINE('',#1106,#229);
#160=LINE('',#1107,#230);
#161=LINE('',#1110,#231);
#162=LINE('',#1112,#232);
#163=LINE('',#1114,#233);
#164=LINE('',#1117,#234);
#165=LINE('',#1118,#235);
#166=LINE('',#1122,#236);
#167=LINE('',#1125,#237);
#168=LINE('',#1126,#238);
#169=LINE('',#1130,#239);
#170=LINE('',#1133,#240);
#171=LINE('',#1134,#241);
#172=LINE('',#1138,#242);
#173=LINE('',#1141,#243);
#174=LINE('',#1142,#244);
#175=LINE('',#1146,#245);
#176=LINE('',#1148,#246);
#177=LINE('',#1149,#247);
#178=VECTOR('',#775,10.);
#179=VECTOR('',#778,10.);
#180=VECTOR('',#781,10.);
#181=VECTOR('',#782,10.);
#182=VECTOR('',#783,10.);
#183=VECTOR('',#786,10.);
#184=VECTOR('',#787,10.);
#185=VECTOR('',#788,10.);
#186=VECTOR('',#791,10.);
#187=VECTOR('',#792,10.);
#188=VECTOR('',#795,10.);
#189=VECTOR('',#798,10.);
#190=VECTOR('',#801,10.);
#191=VECTOR('',#802,10.);
#192=VECTOR('',#807,10.);
#193=VECTOR('',#810,10.);
#194=VECTOR('',#813,10.);
#195=VECTOR('',#816,10.);
#196=VECTOR('',#817,10.);
#197=VECTOR('',#818,10.);
#198=VECTOR('',#821,10.);
#199=VECTOR('',#824,10.);
#200=VECTOR('',#827,10.);
#201=VECTOR('',#830,10.);
#202=VECTOR('',#835,10.);
#203=VECTOR('',#838,10.);
#204=VECTOR('',#841,10.);
#205=VECTOR('',#842,10.);
#206=VECTOR('',#843,10.);
#207=VECTOR('',#846,10.);
#208=VECTOR('',#847,10.);
#209=VECTOR('',#848,10.);
#210=VECTOR('',#849,10.);
#211=VECTOR('',#850,10.);
#212=VECTOR('',#851,10.);
#213=VECTOR('',#852,10.);
#214=VECTOR('',#855,10.);
#215=VECTOR('',#856,10.);
#216=VECTOR('',#857,10.);
#217=VECTOR('',#860,10.);
#218=VECTOR('',#861,10.);
#219=VECTOR('',#864,10.);
#220=VECTOR('',#865,10.);
#221=VECTOR('',#868,10.);
#222=VECTOR('',#875,10.);
#223=VECTOR('',#878,10.);
#224=VECTOR('',#879,10.);
#225=VECTOR('',#884,10.);
#226=VECTOR('',#887,10.);
#227=VECTOR('',#888,10.);
#228=VECTOR('',#893,10.);
#229=VECTOR('',#896,10.);
#230=VECTOR('',#897,10.);
#231=VECTOR('',#902,10.);
#232=VECTOR('',#905,10.);
#233=VECTOR('',#908,10.);
#234=VECTOR('',#911,10.);
#235=VECTOR('',#912,10.);
#236=VECTOR('',#917,10.);
#237=VECTOR('',#920,10.);
#238=VECTOR('',#921,10.);
#239=VECTOR('',#926,10.);
#240=VECTOR('',#929,10.);
#241=VECTOR('',#930,10.);
#242=VECTOR('',#935,10.);
#243=VECTOR('',#938,10.);
#244=VECTOR('',#939,10.);
#245=VECTOR('',#944,10.);
#246=VECTOR('',#947,10.);
#247=VECTOR('',#948,10.);
#248=CIRCLE('',#714,1.);
#249=CIRCLE('',#715,1.);
#250=CIRCLE('',#717,1.);
#251=CIRCLE('',#720,1.);
#252=CIRCLE('',#723,1.);
#253=CIRCLE('',#724,1.00000000000001);
#254=CIRCLE('',#725,0.999999999999992);
#255=CIRCLE('',#726,1.00000000000001);
#256=CIRCLE('',#727,1.);
#257=CIRCLE('',#728,1.00000000000001);
#258=CIRCLE('',#729,1.00000000000001);
#259=CIRCLE('',#730,1.00000000000001);
#260=CIRCLE('',#732,1.);
#261=CIRCLE('',#733,1.);
#262=CIRCLE('',#742,1.);
#263=CIRCLE('',#745,1.00000000000001);
#264=CIRCLE('',#748,0.999999999999992);
#265=CIRCLE('',#751,1.00000000000001);
#266=CIRCLE('',#756,1.);
#267=CIRCLE('',#759,1.00000000000001);
#268=CIRCLE('',#762,1.00000000000001);
#269=CIRCLE('',#765,1.00000000000001);
#270=VERTEX_POINT('',#955);
#271=VERTEX_POINT('',#956);
#272=VERTEX_POINT('',#958);
#273=VERTEX_POINT('',#960);
#274=VERTEX_POINT('',#964);
#275=VERTEX_POINT('',#966);
#276=VERTEX_POINT('',#968);
#277=VERTEX_POINT('',#970);
#278=VERTEX_POINT('',#972);
#279=VERTEX_POINT('',#974);
#280=VERTEX_POINT('',#978);
#281=VERTEX_POINT('',#982);
#282=VERTEX_POINT('',#984);
#283=VERTEX_POINT('',#988);
#284=VERTEX_POINT('',#992);
#285=VERTEX_POINT('',#994);
#286=VERTEX_POINT('',#996);
#287=VERTEX_POINT('',#998);
#288=VERTEX_POINT('',#1000);
#289=VERTEX_POINT('',#1002);
#290=VERTEX_POINT('',#1004);
#291=VERTEX_POINT('',#1006);
#292=VERTEX_POINT('',#1008);
#293=VERTEX_POINT('',#1010);
#294=VERTEX_POINT('',#1012);
#295=VERTEX_POINT('',#1014);
#296=VERTEX_POINT('',#1016);
#297=VERTEX_POINT('',#1018);
#298=VERTEX_POINT('',#1020);
#299=VERTEX_POINT('',#1022);
#300=VERTEX_POINT('',#1024);
#301=VERTEX_POINT('',#1028);
#302=VERTEX_POINT('',#1029);
#303=VERTEX_POINT('',#1031);
#304=VERTEX_POINT('',#1042);
#305=VERTEX_POINT('',#1044);
#306=VERTEX_POINT('',#1048);
#307=VERTEX_POINT('',#1050);
#308=VERTEX_POINT('',#1054);
#309=VERTEX_POINT('',#1055);
#310=VERTEX_POINT('',#1057);
#311=VERTEX_POINT('',#1059);
#312=VERTEX_POINT('',#1062);
#313=VERTEX_POINT('',#1064);
#314=VERTEX_POINT('',#1068);
#315=VERTEX_POINT('',#1069);
#316=VERTEX_POINT('',#1074);
#317=VERTEX_POINT('',#1078);
#318=VERTEX_POINT('',#1085);
#319=VERTEX_POINT('',#1089);
#320=VERTEX_POINT('',#1093);
#321=VERTEX_POINT('',#1097);
#322=VERTEX_POINT('',#1101);
#323=VERTEX_POINT('',#1105);
#324=VERTEX_POINT('',#1116);
#325=VERTEX_POINT('',#1120);
#326=VERTEX_POINT('',#1124);
#327=VERTEX_POINT('',#1128);
#328=VERTEX_POINT('',#1132);
#329=VERTEX_POINT('',#1136);
#330=VERTEX_POINT('',#1140);
#331=VERTEX_POINT('',#1144);
#332=EDGE_CURVE('',#270,#271,#248,.T.);
#333=EDGE_CURVE('',#272,#271,#108,.T.);
#334=EDGE_CURVE('',#272,#273,#249,.T.);
#335=EDGE_CURVE('',#270,#273,#109,.T.);
#336=EDGE_CURVE('',#272,#274,#110,.T.);
#337=EDGE_CURVE('',#274,#275,#111,.T.);
#338=EDGE_CURVE('',#275,#276,#112,.T.);
#339=EDGE_CURVE('',#276,#277,#250,.F.);
#340=EDGE_CURVE('',#277,#278,#113,.T.);
#341=EDGE_CURVE('',#279,#278,#114,.T.);
#342=EDGE_CURVE('',#273,#279,#115,.T.);
#343=EDGE_CURVE('',#280,#279,#116,.T.);
#344=EDGE_CURVE('',#270,#280,#117,.T.);
#345=EDGE_CURVE('',#281,#276,#118,.T.);
#346=EDGE_CURVE('',#282,#281,#251,.F.);
#347=EDGE_CURVE('',#277,#282,#119,.T.);
#348=EDGE_CURVE('',#282,#283,#120,.T.);
#349=EDGE_CURVE('',#278,#283,#121,.T.);
#350=EDGE_CURVE('',#284,#275,#252,.T.);
#351=EDGE_CURVE('',#285,#284,#122,.T.);
#352=EDGE_CURVE('',#286,#285,#253,.T.);
#353=EDGE_CURVE('',#287,#286,#123,.T.);
#354=EDGE_CURVE('',#288,#287,#254,.T.);
#355=EDGE_CURVE('',#289,#288,#124,.T.);
#356=EDGE_CURVE('',#290,#289,#255,.T.);
#357=EDGE_CURVE('',#291,#290,#125,.T.);
#358=EDGE_CURVE('',#292,#291,#126,.T.);
#359=EDGE_CURVE('',#293,#292,#127,.T.);
#360=EDGE_CURVE('',#294,#293,#256,.T.);
#361=EDGE_CURVE('',#295,#294,#128,.T.);
#362=EDGE_CURVE('',#296,#295,#257,.T.);
#363=EDGE_CURVE('',#297,#296,#129,.T.);
#364=EDGE_CURVE('',#298,#297,#258,.T.);
#365=EDGE_CURVE('',#299,#298,#130,.T.);
#366=EDGE_CURVE('',#300,#299,#259,.T.);
#367=EDGE_CURVE('',#281,#300,#131,.T.);
#368=EDGE_CURVE('',#301,#302,#260,.F.);
#369=EDGE_CURVE('',#303,#301,#15,.F.);
#370=EDGE_CURVE('',#304,#303,#132,.T.);
#371=EDGE_CURVE('',#305,#304,#261,.F.);
#372=EDGE_CURVE('',#302,#305,#133,.T.);
#373=EDGE_CURVE('',#305,#306,#134,.T.);
#374=EDGE_CURVE('',#306,#307,#135,.T.);
#375=EDGE_CURVE('',#302,#307,#136,.T.);
#376=EDGE_CURVE('',#308,#309,#137,.T.);
#377=EDGE_CURVE('',#310,#308,#138,.T.);
#378=EDGE_CURVE('',#311,#310,#139,.T.);
#379=EDGE_CURVE('',#309,#311,#140,.T.);
#380=EDGE_CURVE('',#312,#306,#141,.T.);
#381=EDGE_CURVE('',#313,#312,#142,.T.);
#382=EDGE_CURVE('',#307,#313,#143,.T.);
#383=EDGE_CURVE('',#314,#315,#144,.T.);
#384=EDGE_CURVE('',#315,#308,#145,.T.);
#385=EDGE_CURVE('',#314,#309,#146,.T.);
#386=EDGE_CURVE('',#315,#316,#147,.T.);
#387=EDGE_CURVE('',#316,#310,#148,.T.);
#388=EDGE_CURVE('',#316,#317,#149,.T.);
#389=EDGE_CURVE('',#317,#311,#150,.T.);
#390=EDGE_CURVE('',#317,#314,#151,.T.);
#391=EDGE_CURVE('',#274,#318,#262,.T.);
#392=EDGE_CURVE('',#318,#284,#152,.T.);
#393=EDGE_CURVE('',#318,#319,#153,.T.);
#394=EDGE_CURVE('',#319,#285,#154,.T.);
#395=EDGE_CURVE('',#319,#320,#263,.T.);
#396=EDGE_CURVE('',#320,#286,#155,.T.);
#397=EDGE_CURVE('',#320,#321,#156,.T.);
#398=EDGE_CURVE('',#321,#287,#157,.T.);
#399=EDGE_CURVE('',#321,#322,#264,.T.);
#400=EDGE_CURVE('',#322,#288,#158,.T.);
#401=EDGE_CURVE('',#322,#323,#159,.T.);
#402=EDGE_CURVE('',#323,#289,#160,.T.);
#403=EDGE_CURVE('',#323,#303,#265,.T.);
#404=EDGE_CURVE('',#301,#290,#161,.T.);
#405=EDGE_CURVE('',#291,#313,#162,.T.);
#406=EDGE_CURVE('',#292,#312,#163,.T.);
#407=EDGE_CURVE('',#304,#324,#164,.T.);
#408=EDGE_CURVE('',#324,#293,#165,.T.);
#409=EDGE_CURVE('',#324,#325,#266,.T.);
#410=EDGE_CURVE('',#325,#294,#166,.T.);
#411=EDGE_CURVE('',#325,#326,#167,.T.);
#412=EDGE_CURVE('',#326,#295,#168,.T.);
#413=EDGE_CURVE('',#326,#327,#267,.T.);
#414=EDGE_CURVE('',#327,#296,#169,.T.);
#415=EDGE_CURVE('',#327,#328,#170,.T.);
#416=EDGE_CURVE('',#328,#297,#171,.T.);
#417=EDGE_CURVE('',#328,#329,#268,.T.);
#418=EDGE_CURVE('',#329,#298,#172,.T.);
#419=EDGE_CURVE('',#329,#330,#173,.T.);
#420=EDGE_CURVE('',#330,#299,#174,.T.);
#421=EDGE_CURVE('',#330,#331,#269,.T.);
#422=EDGE_CURVE('',#331,#300,#175,.T.);
#423=EDGE_CURVE('',#283,#280,#176,.T.);
#424=EDGE_CURVE('',#331,#271,#177,.T.);
#425=ORIENTED_EDGE('',*,*,#332,.T.);
#426=ORIENTED_EDGE('',*,*,#333,.F.);
#427=ORIENTED_EDGE('',*,*,#334,.T.);
#428=ORIENTED_EDGE('',*,*,#335,.F.);
#429=ORIENTED_EDGE('',*,*,#334,.F.);
#430=ORIENTED_EDGE('',*,*,#336,.T.);
#431=ORIENTED_EDGE('',*,*,#337,.T.);
#432=ORIENTED_EDGE('',*,*,#338,.T.);
#433=ORIENTED_EDGE('',*,*,#339,.T.);
#434=ORIENTED_EDGE('',*,*,#340,.T.);
#435=ORIENTED_EDGE('',*,*,#341,.F.);
#436=ORIENTED_EDGE('',*,*,#342,.F.);
#437=ORIENTED_EDGE('',*,*,#335,.T.);
#438=ORIENTED_EDGE('',*,*,#342,.T.);
#439=ORIENTED_EDGE('',*,*,#343,.F.);
#440=ORIENTED_EDGE('',*,*,#344,.F.);
#441=ORIENTED_EDGE('',*,*,#339,.F.);
#442=ORIENTED_EDGE('',*,*,#345,.F.);
#443=ORIENTED_EDGE('',*,*,#346,.F.);
#444=ORIENTED_EDGE('',*,*,#347,.F.);
#445=ORIENTED_EDGE('',*,*,#347,.T.);
#446=ORIENTED_EDGE('',*,*,#348,.T.);
#447=ORIENTED_EDGE('',*,*,#349,.F.);
#448=ORIENTED_EDGE('',*,*,#340,.F.);
#449=ORIENTED_EDGE('',*,*,#345,.T.);
#450=ORIENTED_EDGE('',*,*,#338,.F.);
#451=ORIENTED_EDGE('',*,*,#350,.F.);
#452=ORIENTED_EDGE('',*,*,#351,.F.);
#453=ORIENTED_EDGE('',*,*,#352,.F.);
#454=ORIENTED_EDGE('',*,*,#353,.F.);
#455=ORIENTED_EDGE('',*,*,#354,.F.);
#456=ORIENTED_EDGE('',*,*,#355,.F.);
#457=ORIENTED_EDGE('',*,*,#356,.F.);
#458=ORIENTED_EDGE('',*,*,#357,.F.);
#459=ORIENTED_EDGE('',*,*,#358,.F.);
#460=ORIENTED_EDGE('',*,*,#359,.F.);
#461=ORIENTED_EDGE('',*,*,#360,.F.);
#462=ORIENTED_EDGE('',*,*,#361,.F.);
#463=ORIENTED_EDGE('',*,*,#362,.F.);
#464=ORIENTED_EDGE('',*,*,#363,.F.);
#465=ORIENTED_EDGE('',*,*,#364,.F.);
#466=ORIENTED_EDGE('',*,*,#365,.F.);
#467=ORIENTED_EDGE('',*,*,#366,.F.);
#468=ORIENTED_EDGE('',*,*,#367,.F.);
#469=ORIENTED_EDGE('',*,*,#368,.F.);
#470=ORIENTED_EDGE('',*,*,#369,.F.);
#471=ORIENTED_EDGE('',*,*,#370,.F.);
#472=ORIENTED_EDGE('',*,*,#371,.F.);
#473=ORIENTED_EDGE('',*,*,#372,.F.);
#474=ORIENTED_EDGE('',*,*,#372,.T.);
#475=ORIENTED_EDGE('',*,*,#373,.T.);
#476=ORIENTED_EDGE('',*,*,#374,.T.);
#477=ORIENTED_EDGE('',*,*,#375,.F.);
#478=ORIENTED_EDGE('',*,*,#376,.F.);
#479=ORIENTED_EDGE('',*,*,#377,.F.);
#480=ORIENTED_EDGE('',*,*,#378,.F.);
#481=ORIENTED_EDGE('',*,*,#379,.F.);
#482=ORIENTED_EDGE('',*,*,#374,.F.);
#483=ORIENTED_EDGE('',*,*,#380,.F.);
#484=ORIENTED_EDGE('',*,*,#381,.F.);
#485=ORIENTED_EDGE('',*,*,#382,.F.);
#486=ORIENTED_EDGE('',*,*,#383,.T.);
#487=ORIENTED_EDGE('',*,*,#384,.T.);
#488=ORIENTED_EDGE('',*,*,#376,.T.);
#489=ORIENTED_EDGE('',*,*,#385,.F.);
#490=ORIENTED_EDGE('',*,*,#386,.T.);
#491=ORIENTED_EDGE('',*,*,#387,.T.);
#492=ORIENTED_EDGE('',*,*,#377,.T.);
#493=ORIENTED_EDGE('',*,*,#384,.F.);
#494=ORIENTED_EDGE('',*,*,#388,.T.);
#495=ORIENTED_EDGE('',*,*,#389,.T.);
#496=ORIENTED_EDGE('',*,*,#378,.T.);
#497=ORIENTED_EDGE('',*,*,#387,.F.);
#498=ORIENTED_EDGE('',*,*,#390,.T.);
#499=ORIENTED_EDGE('',*,*,#385,.T.);
#500=ORIENTED_EDGE('',*,*,#379,.T.);
#501=ORIENTED_EDGE('',*,*,#389,.F.);
#502=ORIENTED_EDGE('',*,*,#383,.F.);
#503=ORIENTED_EDGE('',*,*,#390,.F.);
#504=ORIENTED_EDGE('',*,*,#388,.F.);
#505=ORIENTED_EDGE('',*,*,#386,.F.);
#506=ORIENTED_EDGE('',*,*,#391,.T.);
#507=ORIENTED_EDGE('',*,*,#392,.T.);
#508=ORIENTED_EDGE('',*,*,#350,.T.);
#509=ORIENTED_EDGE('',*,*,#337,.F.);
#510=ORIENTED_EDGE('',*,*,#393,.T.);
#511=ORIENTED_EDGE('',*,*,#394,.T.);
#512=ORIENTED_EDGE('',*,*,#351,.T.);
#513=ORIENTED_EDGE('',*,*,#392,.F.);
#514=ORIENTED_EDGE('',*,*,#395,.T.);
#515=ORIENTED_EDGE('',*,*,#396,.T.);
#516=ORIENTED_EDGE('',*,*,#352,.T.);
#517=ORIENTED_EDGE('',*,*,#394,.F.);
#518=ORIENTED_EDGE('',*,*,#397,.T.);
#519=ORIENTED_EDGE('',*,*,#398,.T.);
#520=ORIENTED_EDGE('',*,*,#353,.T.);
#521=ORIENTED_EDGE('',*,*,#396,.F.);
#522=ORIENTED_EDGE('',*,*,#399,.T.);
#523=ORIENTED_EDGE('',*,*,#400,.T.);
#524=ORIENTED_EDGE('',*,*,#354,.T.);
#525=ORIENTED_EDGE('',*,*,#398,.F.);
#526=ORIENTED_EDGE('',*,*,#401,.T.);
#527=ORIENTED_EDGE('',*,*,#402,.T.);
#528=ORIENTED_EDGE('',*,*,#355,.T.);
#529=ORIENTED_EDGE('',*,*,#400,.F.);
#530=ORIENTED_EDGE('',*,*,#403,.T.);
#531=ORIENTED_EDGE('',*,*,#369,.T.);
#532=ORIENTED_EDGE('',*,*,#404,.T.);
#533=ORIENTED_EDGE('',*,*,#356,.T.);
#534=ORIENTED_EDGE('',*,*,#402,.F.);
#535=ORIENTED_EDGE('',*,*,#404,.F.);
#536=ORIENTED_EDGE('',*,*,#368,.T.);
#537=ORIENTED_EDGE('',*,*,#375,.T.);
#538=ORIENTED_EDGE('',*,*,#382,.T.);
#539=ORIENTED_EDGE('',*,*,#405,.F.);
#540=ORIENTED_EDGE('',*,*,#357,.T.);
#541=ORIENTED_EDGE('',*,*,#405,.T.);
#542=ORIENTED_EDGE('',*,*,#381,.T.);
#543=ORIENTED_EDGE('',*,*,#406,.F.);
#544=ORIENTED_EDGE('',*,*,#358,.T.);
#545=ORIENTED_EDGE('',*,*,#406,.T.);
#546=ORIENTED_EDGE('',*,*,#380,.T.);
#547=ORIENTED_EDGE('',*,*,#373,.F.);
#548=ORIENTED_EDGE('',*,*,#371,.T.);
#549=ORIENTED_EDGE('',*,*,#407,.T.);
#550=ORIENTED_EDGE('',*,*,#408,.T.);
#551=ORIENTED_EDGE('',*,*,#359,.T.);
#552=ORIENTED_EDGE('',*,*,#409,.T.);
#553=ORIENTED_EDGE('',*,*,#410,.T.);
#554=ORIENTED_EDGE('',*,*,#360,.T.);
#555=ORIENTED_EDGE('',*,*,#408,.F.);
#556=ORIENTED_EDGE('',*,*,#411,.T.);
#557=ORIENTED_EDGE('',*,*,#412,.T.);
#558=ORIENTED_EDGE('',*,*,#361,.T.);
#559=ORIENTED_EDGE('',*,*,#410,.F.);
#560=ORIENTED_EDGE('',*,*,#413,.T.);
#561=ORIENTED_EDGE('',*,*,#414,.T.);
#562=ORIENTED_EDGE('',*,*,#362,.T.);
#563=ORIENTED_EDGE('',*,*,#412,.F.);
#564=ORIENTED_EDGE('',*,*,#415,.T.);
#565=ORIENTED_EDGE('',*,*,#416,.T.);
#566=ORIENTED_EDGE('',*,*,#363,.T.);
#567=ORIENTED_EDGE('',*,*,#414,.F.);
#568=ORIENTED_EDGE('',*,*,#417,.T.);
#569=ORIENTED_EDGE('',*,*,#418,.T.);
#570=ORIENTED_EDGE('',*,*,#364,.T.);
#571=ORIENTED_EDGE('',*,*,#416,.F.);
#572=ORIENTED_EDGE('',*,*,#419,.T.);
#573=ORIENTED_EDGE('',*,*,#420,.T.);
#574=ORIENTED_EDGE('',*,*,#365,.T.);
#575=ORIENTED_EDGE('',*,*,#418,.F.);
#576=ORIENTED_EDGE('',*,*,#421,.T.);
#577=ORIENTED_EDGE('',*,*,#422,.T.);
#578=ORIENTED_EDGE('',*,*,#366,.T.);
#579=ORIENTED_EDGE('',*,*,#420,.F.);
#580=ORIENTED_EDGE('',*,*,#332,.F.);
#581=ORIENTED_EDGE('',*,*,#344,.T.);
#582=ORIENTED_EDGE('',*,*,#423,.F.);
#583=ORIENTED_EDGE('',*,*,#348,.F.);
#584=ORIENTED_EDGE('',*,*,#346,.T.);
#585=ORIENTED_EDGE('',*,*,#367,.T.);
#586=ORIENTED_EDGE('',*,*,#422,.F.);
#587=ORIENTED_EDGE('',*,*,#424,.T.);
#588=ORIENTED_EDGE('',*,*,#333,.T.);
#589=ORIENTED_EDGE('',*,*,#424,.F.);
#590=ORIENTED_EDGE('',*,*,#421,.F.);
#591=ORIENTED_EDGE('',*,*,#419,.F.);
#592=ORIENTED_EDGE('',*,*,#417,.F.);
#593=ORIENTED_EDGE('',*,*,#415,.F.);
#594=ORIENTED_EDGE('',*,*,#413,.F.);
#595=ORIENTED_EDGE('',*,*,#411,.F.);
#596=ORIENTED_EDGE('',*,*,#409,.F.);
#597=ORIENTED_EDGE('',*,*,#407,.F.);
#598=ORIENTED_EDGE('',*,*,#370,.T.);
#599=ORIENTED_EDGE('',*,*,#403,.F.);
#600=ORIENTED_EDGE('',*,*,#401,.F.);
#601=ORIENTED_EDGE('',*,*,#399,.F.);
#602=ORIENTED_EDGE('',*,*,#397,.F.);
#603=ORIENTED_EDGE('',*,*,#395,.F.);
#604=ORIENTED_EDGE('',*,*,#393,.F.);
#605=ORIENTED_EDGE('',*,*,#391,.F.);
#606=ORIENTED_EDGE('',*,*,#336,.F.);
#607=ORIENTED_EDGE('',*,*,#341,.T.);
#608=ORIENTED_EDGE('',*,*,#349,.T.);
#609=ORIENTED_EDGE('',*,*,#423,.T.);
#610=ORIENTED_EDGE('',*,*,#343,.T.);
#611=CYLINDRICAL_SURFACE('',#713,1.);
#612=CYLINDRICAL_SURFACE('',#719,1.);
#613=CYLINDRICAL_SURFACE('',#731,1.);
#614=CYLINDRICAL_SURFACE('',#741,1.);
#615=CYLINDRICAL_SURFACE('',#744,1.00000000000001);
#616=CYLINDRICAL_SURFACE('',#747,0.999999999999992);
#617=CYLINDRICAL_SURFACE('',#750,1.00000000000001);
#618=CYLINDRICAL_SURFACE('',#755,1.);
#619=CYLINDRICAL_SURFACE('',#758,1.00000000000001);
#620=CYLINDRICAL_SURFACE('',#761,1.00000000000001);
#621=CYLINDRICAL_SURFACE('',#764,1.00000000000001);
#622=STYLED_ITEM('',(#1172),#656);
#623=STYLED_ITEM('',(#1172),#657);
#624=STYLED_ITEM('',(#1172),#658);
#625=STYLED_ITEM('',(#1172),#659);
#626=STYLED_ITEM('',(#1172),#660);
#627=STYLED_ITEM('',(#1172),#661);
#628=STYLED_ITEM('',(#1172),#662);
#629=STYLED_ITEM('',(#1172),#663);
#630=STYLED_ITEM('',(#1172),#664);
#631=STYLED_ITEM('',(#1172),#665);
#632=STYLED_ITEM('',(#1172),#666);
#633=STYLED_ITEM('',(#1172),#667);
#634=STYLED_ITEM('',(#1172),#668);
#635=STYLED_ITEM('',(#1172),#669);
#636=STYLED_ITEM('',(#1172),#670);
#637=STYLED_ITEM('',(#1172),#671);
#638=STYLED_ITEM('',(#1172),#672);
#639=STYLED_ITEM('',(#1172),#673);
#640=STYLED_ITEM('',(#1172),#674);
#641=STYLED_ITEM('',(#1172),#675);
#642=STYLED_ITEM('',(#1172),#676);
#643=STYLED_ITEM('',(#1172),#677);
#644=STYLED_ITEM('',(#1172),#678);
#645=STYLED_ITEM('',(#1172),#679);
#646=STYLED_ITEM('',(#1172),#680);
#647=STYLED_ITEM('',(#1172),#681);
#648=STYLED_ITEM('',(#1172),#682);
#649=STYLED_ITEM('',(#1172),#683);
#650=STYLED_ITEM('',(#1172),#684);
#651=STYLED_ITEM('',(#1172),#685);
#652=STYLED_ITEM('',(#1172),#686);
#653=STYLED_ITEM('',(#1172),#687);
#654=STYLED_ITEM('',(#1172),#688);
#655=STYLED_ITEM('',(#1171),#13);
#656=ADVANCED_FACE('',(#39),#611,.T.);
#657=ADVANCED_FACE('',(#40),#16,.F.);
#658=ADVANCED_FACE('',(#41),#17,.F.);
#659=ADVANCED_FACE('',(#42),#612,.F.);
#660=ADVANCED_FACE('',(#43),#18,.F.);
#661=ADVANCED_FACE('',(#44),#19,.T.);
#662=ADVANCED_FACE('',(#45),#613,.F.);
#663=ADVANCED_FACE('',(#46),#20,.T.);
#664=ADVANCED_FACE('',(#47,#14),#21,.T.);
#665=ADVANCED_FACE('',(#48),#22,.F.);
#666=ADVANCED_FACE('',(#49),#23,.F.);
#667=ADVANCED_FACE('',(#50),#24,.F.);
#668=ADVANCED_FACE('',(#51),#25,.F.);
#669=ADVANCED_FACE('',(#52),#26,.F.);
#670=ADVANCED_FACE('',(#53),#614,.F.);
#671=ADVANCED_FACE('',(#54),#27,.F.);
#672=ADVANCED_FACE('',(#55),#615,.F.);
#673=ADVANCED_FACE('',(#56),#28,.F.);
#674=ADVANCED_FACE('',(#57),#616,.F.);
#675=ADVANCED_FACE('',(#58),#29,.F.);
#676=ADVANCED_FACE('',(#59),#617,.F.);
#677=ADVANCED_FACE('',(#60),#30,.F.);
#678=ADVANCED_FACE('',(#61),#31,.F.);
#679=ADVANCED_FACE('',(#62),#32,.F.);
#680=ADVANCED_FACE('',(#63),#618,.T.);
#681=ADVANCED_FACE('',(#64),#33,.F.);
#682=ADVANCED_FACE('',(#65),#619,.T.);
#683=ADVANCED_FACE('',(#66),#34,.F.);
#684=ADVANCED_FACE('',(#67),#620,.T.);
#685=ADVANCED_FACE('',(#68),#35,.F.);
#686=ADVANCED_FACE('',(#69),#621,.T.);
#687=ADVANCED_FACE('',(#70),#36,.F.);
#688=ADVANCED_FACE('',(#71),#37,.F.);
#689=ADVANCED_FACE('',(#72),#38,.T.);
#690=CLOSED_SHELL('',(#656,#657,#658,#659,#660,#661,#662,#663,#664,#665,
#666,#667,#668,#669,#670,#671,#672,#673,#674,#675,#676,#677,#678,#679,#680,
#681,#682,#683,#684,#685,#686,#687,#688,#689));
#691=DERIVED_UNIT_ELEMENT(#694,1.);
#692=DERIVED_UNIT_ELEMENT(#1157,-3.);
#693=DIMENSIONAL_EXPONENTS(0.,1.,0.,0.,0.,0.,0.);
#694=(
CONVERSION_BASED_UNIT('gram',#696)
MASS_UNIT()
NAMED_UNIT(#693)
);
#695=(
MASS_UNIT()
NAMED_UNIT(*)
SI_UNIT(.KILO.,.GRAM.)
);
#696=MASS_MEASURE_WITH_UNIT(MASS_MEASURE(0.001),#695);
#697=DERIVED_UNIT((#691,#692));
#698=MEASURE_REPRESENTATION_ITEM('density measure',
POSITIVE_RATIO_MEASURE(1.),#697);
#699=PROPERTY_DEFINITION_REPRESENTATION(#704,#701);
#700=PROPERTY_DEFINITION_REPRESENTATION(#705,#702);
#701=REPRESENTATION('material name',(#703),#1154);
#702=REPRESENTATION('density',(#698),#1154);
#703=DESCRIPTIVE_REPRESENTATION_ITEM('Generic','Generic');
#704=PROPERTY_DEFINITION('material property','material name',#1164);
#705=PROPERTY_DEFINITION('material property','density of part',#1164);
#706=DATE_TIME_ROLE('creation_date');
#707=APPLIED_DATE_AND_TIME_ASSIGNMENT(#708,#706,(#1164));
#708=DATE_AND_TIME(#709,#710);
#709=CALENDAR_DATE(2026,3,6);
#710=LOCAL_TIME(0,0,0.,#711);
#711=COORDINATED_UNIVERSAL_TIME_OFFSET(0,0,.BEHIND.);
#712=AXIS2_PLACEMENT_3D('',#953,#769,#770);
#713=AXIS2_PLACEMENT_3D('',#954,#771,#772);
#714=AXIS2_PLACEMENT_3D('',#957,#773,#774);
#715=AXIS2_PLACEMENT_3D('',#961,#776,#777);
#716=AXIS2_PLACEMENT_3D('',#963,#779,#780);
#717=AXIS2_PLACEMENT_3D('',#971,#784,#785);
#718=AXIS2_PLACEMENT_3D('',#977,#789,#790);
#719=AXIS2_PLACEMENT_3D('',#981,#793,#794);
#720=AXIS2_PLACEMENT_3D('',#985,#796,#797);
#721=AXIS2_PLACEMENT_3D('',#987,#799,#800);
#722=AXIS2_PLACEMENT_3D('',#991,#803,#804);
#723=AXIS2_PLACEMENT_3D('',#993,#805,#806);
#724=AXIS2_PLACEMENT_3D('',#997,#808,#809);
#725=AXIS2_PLACEMENT_3D('',#1001,#811,#812);
#726=AXIS2_PLACEMENT_3D('',#1005,#814,#815);
#727=AXIS2_PLACEMENT_3D('',#1013,#819,#820);
#728=AXIS2_PLACEMENT_3D('',#1017,#822,#823);
#729=AXIS2_PLACEMENT_3D('',#1021,#825,#826);
#730=AXIS2_PLACEMENT_3D('',#1025,#828,#829);
#731=AXIS2_PLACEMENT_3D('',#1027,#831,#832);
#732=AXIS2_PLACEMENT_3D('',#1030,#833,#834);
#733=AXIS2_PLACEMENT_3D('',#1045,#836,#837);
#734=AXIS2_PLACEMENT_3D('',#1047,#839,#840);
#735=AXIS2_PLACEMENT_3D('',#1053,#844,#845);
#736=AXIS2_PLACEMENT_3D('',#1067,#853,#854);
#737=AXIS2_PLACEMENT_3D('',#1073,#858,#859);
#738=AXIS2_PLACEMENT_3D('',#1077,#862,#863);
#739=AXIS2_PLACEMENT_3D('',#1081,#866,#867);
#740=AXIS2_PLACEMENT_3D('',#1083,#869,#870);
#741=AXIS2_PLACEMENT_3D('',#1084,#871,#872);
#742=AXIS2_PLACEMENT_3D('',#1086,#873,#874);
#743=AXIS2_PLACEMENT_3D('',#1088,#876,#877);
#744=AXIS2_PLACEMENT_3D('',#1092,#880,#881);
#745=AXIS2_PLACEMENT_3D('',#1094,#882,#883);
#746=AXIS2_PLACEMENT_3D('',#1096,#885,#886);
#747=AXIS2_PLACEMENT_3D('',#1100,#889,#890);
#748=AXIS2_PLACEMENT_3D('',#1102,#891,#892);
#749=AXIS2_PLACEMENT_3D('',#1104,#894,#895);
#750=AXIS2_PLACEMENT_3D('',#1108,#898,#899);
#751=AXIS2_PLACEMENT_3D('',#1109,#900,#901);
#752=AXIS2_PLACEMENT_3D('',#1111,#903,#904);
#753=AXIS2_PLACEMENT_3D('',#1113,#906,#907);
#754=AXIS2_PLACEMENT_3D('',#1115,#909,#910);
#755=AXIS2_PLACEMENT_3D('',#1119,#913,#914);
#756=AXIS2_PLACEMENT_3D('',#1121,#915,#916);
#757=AXIS2_PLACEMENT_3D('',#1123,#918,#919);
#758=AXIS2_PLACEMENT_3D('',#1127,#922,#923);
#759=AXIS2_PLACEMENT_3D('',#1129,#924,#925);
#760=AXIS2_PLACEMENT_3D('',#1131,#927,#928);
#761=AXIS2_PLACEMENT_3D('',#1135,#931,#932);
#762=AXIS2_PLACEMENT_3D('',#1137,#933,#934);
#763=AXIS2_PLACEMENT_3D('',#1139,#936,#937);
#764=AXIS2_PLACEMENT_3D('',#1143,#940,#941);
#765=AXIS2_PLACEMENT_3D('',#1145,#942,#943);
#766=AXIS2_PLACEMENT_3D('',#1147,#945,#946);
#767=AXIS2_PLACEMENT_3D('',#1150,#949,#950);
#768=AXIS2_PLACEMENT_3D('',#1151,#951,#952);
#769=DIRECTION('axis',(0.,0.,1.));
#770=DIRECTION('refdir',(1.,0.,0.));
#771=DIRECTION('center_axis',(-1.,0.,-4.44089209850062E-15));
#772=DIRECTION('ref_axis',(6.28036983473508E-15,-0.707106781186546,-0.707106781186549));
#773=DIRECTION('center_axis',(-1.,0.,0.));
#774=DIRECTION('ref_axis',(6.28036983473508E-15,-0.707106781186546,-0.707106781186549));
#775=DIRECTION('',(1.,0.,4.44089209850062E-15));
#776=DIRECTION('center_axis',(1.,0.,-1.5419764230905E-15));
#777=DIRECTION('ref_axis',(6.28036983473508E-15,-0.707106781186546,-0.707106781186549));
#778=DIRECTION('',(-1.,0.,-4.44089209850062E-15));
#779=DIRECTION('center_axis',(1.,0.,-1.5419764230905E-15));
#780=DIRECTION('ref_axis',(-1.5419764230905E-15,0.,-1.));
#781=DIRECTION('',(1.5419764230905E-15,0.,1.));
#782=DIRECTION('',(0.,1.,0.));
#783=DIRECTION('',(-1.5419764230905E-15,0.,-1.));
#784=DIRECTION('center_axis',(-1.,0.,1.5419764230905E-15));
#785=DIRECTION('ref_axis',(0.,-0.707106781186546,-0.707106781186549));
#786=DIRECTION('',(0.,1.,0.));
#787=DIRECTION('',(1.5419764230905E-15,0.,1.));
#788=DIRECTION('',(0.,1.,0.));
#789=DIRECTION('center_axis',(-4.44089209850062E-15,0.,1.));
#790=DIRECTION('ref_axis',(1.,0.,4.44089209850062E-15));
#791=DIRECTION('',(-1.,0.,-4.44089209850062E-15));
#792=DIRECTION('',(0.,1.,0.));
#793=DIRECTION('center_axis',(-1.,0.,0.));
#794=DIRECTION('ref_axis',(0.,-0.707106781186546,-0.707106781186549));
#795=DIRECTION('',(-1.,0.,0.));
#796=DIRECTION('center_axis',(1.,0.,0.));
#797=DIRECTION('ref_axis',(0.,-0.707106781186546,-0.707106781186549));
#798=DIRECTION('',(1.,0.,0.));
#799=DIRECTION('center_axis',(0.,0.,-1.));
#800=DIRECTION('ref_axis',(-1.,0.,0.));
#801=DIRECTION('',(0.,1.,0.));
#802=DIRECTION('',(1.,0.,0.));
#803=DIRECTION('center_axis',(0.,1.,0.));
#804=DIRECTION('ref_axis',(0.,0.,1.));
#805=DIRECTION('center_axis',(0.,1.,0.));
#806=DIRECTION('ref_axis',(0.,0.,1.));
#807=DIRECTION('',(1.,0.,0.));
#808=DIRECTION('center_axis',(0.,1.,0.));
#809=DIRECTION('ref_axis',(-1.,0.,8.88178419700117E-15));
#810=DIRECTION('',(0.,0.,1.));
#811=DIRECTION('center_axis',(0.,1.,0.));
#812=DIRECTION('ref_axis',(4.44089209850066E-15,0.,-1.));
#813=DIRECTION('',(-1.,0.,-8.88178419700124E-16));
#814=DIRECTION('center_axis',(0.,1.,0.));
#815=DIRECTION('ref_axis',(1.,0.,-4.44089209850059E-15));
#816=DIRECTION('',(0.,0.,-1.));
#817=DIRECTION('',(-1.,0.,-7.40148683083438E-16));
#818=DIRECTION('',(0.,0.,1.));
#819=DIRECTION('center_axis',(0.,-1.,0.));
#820=DIRECTION('ref_axis',(-1.,0.,-2.22044604925031E-15));
#821=DIRECTION('',(1.,0.,1.11022302462516E-15));
#822=DIRECTION('center_axis',(0.,-1.,0.));
#823=DIRECTION('ref_axis',(8.8817841970012E-15,0.,1.));
#824=DIRECTION('',(0.,0.,-1.));
#825=DIRECTION('center_axis',(0.,-1.,0.));
#826=DIRECTION('ref_axis',(1.,0.,-8.88178419700113E-15));
#827=DIRECTION('',(-1.,0.,3.41607084500048E-16));
#828=DIRECTION('center_axis',(0.,-1.,0.));
#829=DIRECTION('ref_axis',(-8.8817841970012E-15,0.,-1.));
#830=DIRECTION('',(0.,0.,1.));
#831=DIRECTION('center_axis',(1.,0.,0.));
#832=DIRECTION('ref_axis',(0.,0.707106781186549,0.707106781186546));
#833=DIRECTION('center_axis',(-1.,0.,0.));
#834=DIRECTION('ref_axis',(0.,0.707106781186549,0.707106781186546));
#835=DIRECTION('',(-1.,0.,0.));
#836=DIRECTION('center_axis',(1.,0.,0.));
#837=DIRECTION('ref_axis',(0.,0.707106781186549,0.707106781186546));
#838=DIRECTION('',(1.,0.,0.));
#839=DIRECTION('center_axis',(0.,0.,-1.));
#840=DIRECTION('ref_axis',(1.,0.,0.));
#841=DIRECTION('',(0.,-1.,0.));
#842=DIRECTION('',(-1.,0.,0.));
#843=DIRECTION('',(0.,-1.,0.));
#844=DIRECTION('center_axis',(0.,1.,0.));
#845=DIRECTION('ref_axis',(0.,0.,1.));
#846=DIRECTION('',(-1.,0.,1.77635683940025E-16));
#847=DIRECTION('',(2.22044604925031E-17,0.,1.));
#848=DIRECTION('',(1.,0.,1.52964061170577E-16));
#849=DIRECTION('',(0.,0.,-1.));
#850=DIRECTION('',(0.,0.,-1.));
#851=DIRECTION('',(1.,0.,0.));
#852=DIRECTION('',(0.,0.,1.));
#853=DIRECTION('center_axis',(-1.77635683940025E-16,0.,-1.));
#854=DIRECTION('ref_axis',(-1.,0.,1.77635683940025E-16));
#855=DIRECTION('',(1.,0.,-1.77635683940025E-16));
#856=DIRECTION('',(0.,1.,0.));
#857=DIRECTION('',(0.,1.,0.));
#858=DIRECTION('center_axis',(-1.,0.,2.22044604925031E-17));
#859=DIRECTION('ref_axis',(2.22044604925031E-17,0.,1.));
#860=DIRECTION('',(-2.22044604925031E-17,0.,-1.));
#861=DIRECTION('',(0.,1.,0.));
#862=DIRECTION('center_axis',(-1.52964061170577E-16,0.,1.));
#863=DIRECTION('ref_axis',(1.,0.,1.52964061170577E-16));
#864=DIRECTION('',(-1.,0.,-1.52964061170577E-16));
#865=DIRECTION('',(0.,1.,0.));
#866=DIRECTION('center_axis',(1.,0.,0.));
#867=DIRECTION('ref_axis',(0.,0.,-1.));
#868=DIRECTION('',(0.,0.,1.));
#869=DIRECTION('center_axis',(0.,1.,0.));
#870=DIRECTION('ref_axis',(0.,0.,1.));
#871=DIRECTION('center_axis',(0.,1.,0.));
#872=DIRECTION('ref_axis',(0.,0.,1.));
#873=DIRECTION('center_axis',(0.,-1.,0.));
#874=DIRECTION('ref_axis',(0.,0.,1.));
#875=DIRECTION('',(0.,1.,0.));
#876=DIRECTION('center_axis',(0.,0.,1.));
#877=DIRECTION('ref_axis',(1.,0.,0.));
#878=DIRECTION('',(-1.,0.,0.));
#879=DIRECTION('',(0.,1.,0.));
#880=DIRECTION('center_axis',(0.,1.,0.));
#881=DIRECTION('ref_axis',(-1.,0.,8.88178419700117E-15));
#882=DIRECTION('center_axis',(0.,-1.,0.));
#883=DIRECTION('ref_axis',(-1.,0.,8.88178419700117E-15));
#884=DIRECTION('',(0.,1.,0.));
#885=DIRECTION('center_axis',(-1.,0.,0.));
#886=DIRECTION('ref_axis',(0.,0.,1.));
#887=DIRECTION('',(0.,0.,-1.));
#888=DIRECTION('',(0.,1.,0.));
#889=DIRECTION('center_axis',(0.,1.,0.));
#890=DIRECTION('ref_axis',(4.44089209850066E-15,0.,-1.));
#891=DIRECTION('center_axis',(0.,-1.,0.));
#892=DIRECTION('ref_axis',(4.44089209850066E-15,0.,-1.));
#893=DIRECTION('',(0.,1.,0.));
#894=DIRECTION('center_axis',(8.88178419700124E-16,0.,-1.));
#895=DIRECTION('ref_axis',(-1.,0.,-8.88178419700124E-16));
#896=DIRECTION('',(1.,0.,8.88178419700124E-16));
#897=DIRECTION('',(0.,1.,0.));
#898=DIRECTION('center_axis',(0.,1.,0.));
#899=DIRECTION('ref_axis',(1.,0.,-4.44089209850059E-15));
#900=DIRECTION('center_axis',(0.,-1.,0.));
#901=DIRECTION('ref_axis',(1.,0.,-4.44089209850059E-15));
#902=DIRECTION('',(0.,1.,0.));
#903=DIRECTION('center_axis',(1.,0.,0.));
#904=DIRECTION('ref_axis',(0.,0.,-1.));
#905=DIRECTION('',(0.,-1.,0.));
#906=DIRECTION('center_axis',(7.40148683083438E-16,0.,-1.));
#907=DIRECTION('ref_axis',(-1.,0.,-7.40148683083438E-16));
#908=DIRECTION('',(0.,-1.,0.));
#909=DIRECTION('center_axis',(-1.,0.,0.));
#910=DIRECTION('ref_axis',(0.,0.,1.));
#911=DIRECTION('',(0.,0.,-1.));
#912=DIRECTION('',(0.,1.,0.));
#913=DIRECTION('center_axis',(0.,1.,0.));
#914=DIRECTION('ref_axis',(-1.,0.,-2.22044604925031E-15));
#915=DIRECTION('center_axis',(0.,1.,0.));
#916=DIRECTION('ref_axis',(-1.,0.,-2.22044604925031E-15));
#917=DIRECTION('',(0.,1.,0.));
#918=DIRECTION('center_axis',(-1.11022302462516E-15,0.,1.));
#919=DIRECTION('ref_axis',(1.,0.,1.11022302462516E-15));
#920=DIRECTION('',(-1.,0.,-1.11022302462516E-15));
#921=DIRECTION('',(0.,1.,0.));
#922=DIRECTION('center_axis',(0.,1.,0.));
#923=DIRECTION('ref_axis',(8.8817841970012E-15,0.,1.));
#924=DIRECTION('center_axis',(0.,1.,0.));
#925=DIRECTION('ref_axis',(8.8817841970012E-15,0.,1.));
#926=DIRECTION('',(0.,1.,0.));
#927=DIRECTION('center_axis',(1.,0.,0.));
#928=DIRECTION('ref_axis',(0.,0.,-1.));
#929=DIRECTION('',(0.,0.,1.));
#930=DIRECTION('',(0.,1.,0.));
#931=DIRECTION('center_axis',(0.,1.,0.));
#932=DIRECTION('ref_axis',(1.,0.,-8.88178419700113E-15));
#933=DIRECTION('center_axis',(0.,1.,0.));
#934=DIRECTION('ref_axis',(1.,0.,-8.88178419700113E-15));
#935=DIRECTION('',(0.,1.,0.));
#936=DIRECTION('center_axis',(-3.41607084500048E-16,0.,-1.));
#937=DIRECTION('ref_axis',(-1.,0.,3.41607084500048E-16));
#938=DIRECTION('',(1.,0.,-3.41607084500048E-16));
#939=DIRECTION('',(0.,1.,0.));
#940=DIRECTION('center_axis',(0.,1.,0.));
#941=DIRECTION('ref_axis',(-8.8817841970012E-15,0.,-1.));
#942=DIRECTION('center_axis',(0.,1.,0.));
#943=DIRECTION('ref_axis',(-8.8817841970012E-15,0.,-1.));
#944=DIRECTION('',(0.,1.,0.));
#945=DIRECTION('center_axis',(-1.,0.,0.));
#946=DIRECTION('ref_axis',(0.,0.,1.));
#947=DIRECTION('',(0.,0.,-1.));
#948=DIRECTION('',(0.,0.,-1.));
#949=DIRECTION('center_axis',(0.,1.,0.));
#950=DIRECTION('ref_axis',(0.,0.,1.));
#951=DIRECTION('center_axis',(0.,1.,0.));
#952=DIRECTION('ref_axis',(0.,0.,1.));
#953=CARTESIAN_POINT('',(0.,0.,0.));
#954=CARTESIAN_POINT('Origin',(-26.5,15.,24.1316786177785));
#955=CARTESIAN_POINT('',(-22.,15.,23.1316786177785));
#956=CARTESIAN_POINT('',(-22.,14.,24.1316786177785));
#957=CARTESIAN_POINT('Origin',(-22.,15.,24.1316786177785));
#958=CARTESIAN_POINT('',(-28.,14.,24.1316786177785));
#959=CARTESIAN_POINT('',(-26.5,14.,24.1316786177785));
#960=CARTESIAN_POINT('',(-28.,15.,23.1316786177785));
#961=CARTESIAN_POINT('Origin',(-28.,15.,24.1316786177785));
#962=CARTESIAN_POINT('',(-26.5,15.,23.1316786177785));
#963=CARTESIAN_POINT('Origin',(-28.,14.,30.0116786177785));
#964=CARTESIAN_POINT('',(-28.,14.,30.0116786177785));
#965=CARTESIAN_POINT('',(-28.,14.,27.5058393088892));
#966=CARTESIAN_POINT('',(-28.,18.,30.0116786177785));
#967=CARTESIAN_POINT('',(-28.,14.,30.0116786177785));
#968=CARTESIAN_POINT('',(-28.,18.,28.1316786177785));
#969=CARTESIAN_POINT('',(-28.,18.,30.0116786177785));
#970=CARTESIAN_POINT('',(-28.,19.,27.1316786177785));
#971=CARTESIAN_POINT('Origin',(-28.,19.,28.1316786177785));
#972=CARTESIAN_POINT('',(-28.,21.,27.1316786177785));
#973=CARTESIAN_POINT('',(-28.,18.,27.1316786177785));
#974=CARTESIAN_POINT('',(-28.,21.,23.1316786177785));
#975=CARTESIAN_POINT('',(-28.,21.,27.5058393088893));
#976=CARTESIAN_POINT('',(-28.,14.,23.1316786177785));
#977=CARTESIAN_POINT('Origin',(-28.,14.,23.1316786177785));
#978=CARTESIAN_POINT('',(-22.,21.,23.1316786177785));
#979=CARTESIAN_POINT('',(-26.5,21.,23.1316786177785));
#980=CARTESIAN_POINT('',(-22.,14.,23.1316786177785));
#981=CARTESIAN_POINT('Origin',(-23.5,19.,28.1316786177785));
#982=CARTESIAN_POINT('',(-22.,18.,28.1316786177785));
#983=CARTESIAN_POINT('',(-23.5,18.,28.1316786177785));
#984=CARTESIAN_POINT('',(-22.,19.,27.1316786177785));
#985=CARTESIAN_POINT('Origin',(-22.,19.,28.1316786177785));
#986=CARTESIAN_POINT('',(-23.5,19.,27.1316786177785));
#987=CARTESIAN_POINT('Origin',(-22.,18.,27.1316786177785));
#988=CARTESIAN_POINT('',(-22.,21.,27.1316786177785));
#989=CARTESIAN_POINT('',(-22.,18.,27.1316786177785));
#990=CARTESIAN_POINT('',(-23.5,21.,27.1316786177785));
#991=CARTESIAN_POINT('Origin',(-25.,18.,25.));
#992=CARTESIAN_POINT('',(-29.,18.,31.0116786177785));
#993=CARTESIAN_POINT('Origin',(-29.,18.,30.0116786177785));
#994=CARTESIAN_POINT('',(-30.,18.,31.0116786177785));
#995=CARTESIAN_POINT('',(-30.,18.,31.0116786177785));
#996=CARTESIAN_POINT('',(-31.,18.,30.0116786177785));
#997=CARTESIAN_POINT('Origin',(-30.,18.,30.0116786177785));
#998=CARTESIAN_POINT('',(-31.,18.,22.7916786177785));
#999=CARTESIAN_POINT('',(-31.,18.,22.7916786177785));
#1000=CARTESIAN_POINT('',(-30.,18.,21.7916786177785));
#1001=CARTESIAN_POINT('Origin',(-30.,18.,22.7916786177785));
#1002=CARTESIAN_POINT('',(-20.,18.,21.7916786177785));
#1003=CARTESIAN_POINT('',(-20.,18.,21.7916786177785));
#1004=CARTESIAN_POINT('',(-19.,18.,22.7916786177785));
#1005=CARTESIAN_POINT('Origin',(-20.,18.,22.7916786177785));
#1006=CARTESIAN_POINT('',(-19.,18.,27.1316786177785));
#1007=CARTESIAN_POINT('',(-19.,18.,27.1316786177785));
#1008=CARTESIAN_POINT('',(-13.,18.,27.1316786177785));
#1009=CARTESIAN_POINT('',(-13.,18.,27.1316786177785));
#1010=CARTESIAN_POINT('',(-13.,18.,16.7916786177785));
#1011=CARTESIAN_POINT('',(-13.,18.,16.7916786177785));
#1012=CARTESIAN_POINT('',(-14.,18.,15.7916786177785));
#1013=CARTESIAN_POINT('Origin',(-14.,18.,16.7916786177785));
#1014=CARTESIAN_POINT('',(-36.,18.,15.7916786177785));
#1015=CARTESIAN_POINT('',(-36.,18.,15.7916786177785));
#1016=CARTESIAN_POINT('',(-37.,18.,16.7916786177785));
#1017=CARTESIAN_POINT('Origin',(-36.,18.,16.7916786177785));
#1018=CARTESIAN_POINT('',(-37.,18.,36.0116786177785));
#1019=CARTESIAN_POINT('',(-37.,18.,36.0116786177785));
#1020=CARTESIAN_POINT('',(-36.,18.,37.0116786177785));
#1021=CARTESIAN_POINT('Origin',(-36.,18.,36.0116786177785));
#1022=CARTESIAN_POINT('',(-23.,18.,37.0116786177785));
#1023=CARTESIAN_POINT('',(-23.,18.,37.0116786177785));
#1024=CARTESIAN_POINT('',(-22.,18.,36.0116786177785));
#1025=CARTESIAN_POINT('Origin',(-23.,18.,36.0116786177785));
#1026=CARTESIAN_POINT('',(-22.,18.,23.1316786177785));
#1027=CARTESIAN_POINT('Origin',(-22.,13.,22.1316786177785));
#1028=CARTESIAN_POINT('',(-19.,13.7512655988397,22.7916786177785));
#1029=CARTESIAN_POINT('',(-19.,13.,23.1316786177785));
#1030=CARTESIAN_POINT('Origin',(-19.,13.,22.1316786177785));
#1031=CARTESIAN_POINT('',(-19.2487344011603,14.,22.1316786177785));
#1032=CARTESIAN_POINT('Ctrl Pts',(-19.,13.7512655988398,22.7916786177784));
#1033=CARTESIAN_POINT('Ctrl Pts',(-19.,13.7753757293231,22.7642345092698));
#1034=CARTESIAN_POINT('Ctrl Pts',(-19.0011336437311,13.7978391123475,22.7356245791527));
#1035=CARTESIAN_POINT('Ctrl Pts',(-19.0090999325181,13.8629558353895,22.6428406054644));
#1036=CARTESIAN_POINT('Ctrl Pts',(-19.0219349264912,13.9027401765139,22.5692372559895));
#1037=CARTESIAN_POINT('Ctrl Pts',(-19.0682903442586,13.9608133357568,22.4201835490321));
#1038=CARTESIAN_POINT('Ctrl Pts',(-19.1020653968659,13.9792843067844,22.3448835519552));
#1039=CARTESIAN_POINT('Ctrl Pts',(-19.1724029093956,13.9968077007009,22.2271296891059));
#1040=CARTESIAN_POINT('Ctrl Pts',(-19.2083334467438,14.,22.1776662650715));
#1041=CARTESIAN_POINT('Ctrl Pts',(-19.2487344011603,14.,22.1316786177785));
#1042=CARTESIAN_POINT('',(-13.,14.,22.1316786177785));
#1043=CARTESIAN_POINT('',(-22.,14.,22.1316786177785));
#1044=CARTESIAN_POINT('',(-13.,13.,23.1316786177785));
#1045=CARTESIAN_POINT('Origin',(-13.,13.,22.1316786177785));
#1046=CARTESIAN_POINT('',(-22.,13.,23.1316786177785));
#1047=CARTESIAN_POINT('Origin',(-19.,14.,23.1316786177785));
#1048=CARTESIAN_POINT('',(-13.,11.,23.1316786177785));
#1049=CARTESIAN_POINT('',(-13.,14.,23.1316786177785));
#1050=CARTESIAN_POINT('',(-19.,11.,23.1316786177785));
#1051=CARTESIAN_POINT('',(-22.,11.,23.1316786177785));
#1052=CARTESIAN_POINT('',(-19.,14.,23.1316786177785));
#1053=CARTESIAN_POINT('Origin',(-25.,11.,25.));
#1054=CARTESIAN_POINT('',(1.88737914186277E-14,11.,50.));
#1055=CARTESIAN_POINT('',(-50.,11.,50.));
#1056=CARTESIAN_POINT('',(1.77635683940025E-14,11.,50.));
#1057=CARTESIAN_POINT('',(1.77635683940025E-14,11.,-2.66453525910038E-14));
#1058=CARTESIAN_POINT('',(1.77635683940025E-14,11.,-2.66453525910038E-14));
#1059=CARTESIAN_POINT('',(-50.,11.,-2.66453525910038E-14));
#1060=CARTESIAN_POINT('',(-50.,11.,-3.05311331771918E-14));
#1061=CARTESIAN_POINT('',(-50.,11.,50.));
#1062=CARTESIAN_POINT('',(-13.,11.,27.1316786177785));
#1063=CARTESIAN_POINT('',(-13.,11.,24.0658393088892));
#1064=CARTESIAN_POINT('',(-19.,11.,27.1316786177785));
#1065=CARTESIAN_POINT('',(-19.,11.,27.1316786177785));
#1066=CARTESIAN_POINT('',(-19.,11.,26.0658393088892));
#1067=CARTESIAN_POINT('Origin',(1.88737914186277E-14,3.,50.));
#1068=CARTESIAN_POINT('',(-50.,3.,50.));
#1069=CARTESIAN_POINT('',(1.88737914186277E-14,3.,50.));
#1070=CARTESIAN_POINT('',(-12.5,3.,50.));
#1071=CARTESIAN_POINT('',(1.88737914186277E-14,3.,50.));
#1072=CARTESIAN_POINT('',(-50.,3.,50.));
#1073=CARTESIAN_POINT('Origin',(1.77635683940025E-14,3.,-2.2882930118663E-14));
#1074=CARTESIAN_POINT('',(1.77635683940025E-14,3.,-2.2882930118663E-14));
#1075=CARTESIAN_POINT('',(1.77635683940025E-14,3.,12.5));
#1076=CARTESIAN_POINT('',(1.77635683940025E-14,3.,-2.2882930118663E-14));
#1077=CARTESIAN_POINT('Origin',(-50.,3.,-3.05311331771918E-14));
#1078=CARTESIAN_POINT('',(-50.,3.,-3.05311331771918E-14));
#1079=CARTESIAN_POINT('',(-37.5,3.,-2.88657986402541E-14));
#1080=CARTESIAN_POINT('',(-50.,3.,-3.05311331771918E-14));
#1081=CARTESIAN_POINT('Origin',(-50.,3.,50.));
#1082=CARTESIAN_POINT('',(-50.,3.,37.5));
#1083=CARTESIAN_POINT('Origin',(-25.,3.,25.));
#1084=CARTESIAN_POINT('Origin',(-29.,14.,30.0116786177785));
#1085=CARTESIAN_POINT('',(-29.,14.,31.0116786177785));
#1086=CARTESIAN_POINT('Origin',(-29.,14.,30.0116786177785));
#1087=CARTESIAN_POINT('',(-29.,14.,31.0116786177785));
#1088=CARTESIAN_POINT('Origin',(-30.,14.,31.0116786177785));
#1089=CARTESIAN_POINT('',(-30.,14.,31.0116786177785));
#1090=CARTESIAN_POINT('',(-27.5,14.,31.0116786177785));
#1091=CARTESIAN_POINT('',(-30.,14.,31.0116786177785));
#1092=CARTESIAN_POINT('Origin',(-30.,14.,30.0116786177785));
#1093=CARTESIAN_POINT('',(-31.,14.,30.0116786177785));
#1094=CARTESIAN_POINT('Origin',(-30.,14.,30.0116786177785));
#1095=CARTESIAN_POINT('',(-31.,14.,30.0116786177785));
#1096=CARTESIAN_POINT('Origin',(-31.,14.,22.7916786177785));
#1097=CARTESIAN_POINT('',(-31.,14.,22.7916786177785));
#1098=CARTESIAN_POINT('',(-31.,14.,23.8958393088892));
#1099=CARTESIAN_POINT('',(-31.,14.,22.7916786177785));
#1100=CARTESIAN_POINT('Origin',(-30.,14.,22.7916786177785));
#1101=CARTESIAN_POINT('',(-30.,14.,21.7916786177785));
#1102=CARTESIAN_POINT('Origin',(-30.,14.,22.7916786177785));
#1103=CARTESIAN_POINT('',(-30.,14.,21.7916786177785));
#1104=CARTESIAN_POINT('Origin',(-20.,14.,21.7916786177785));
#1105=CARTESIAN_POINT('',(-20.,14.,21.7916786177785));
#1106=CARTESIAN_POINT('',(-22.5,14.,21.7916786177785));
#1107=CARTESIAN_POINT('',(-20.,14.,21.7916786177785));
#1108=CARTESIAN_POINT('Origin',(-20.,14.,22.7916786177785));
#1109=CARTESIAN_POINT('Origin',(-20.,14.,22.7916786177785));
#1110=CARTESIAN_POINT('',(-19.,14.,22.7916786177785));
#1111=CARTESIAN_POINT('Origin',(-19.,14.,27.1316786177785));
#1112=CARTESIAN_POINT('',(-19.,14.,27.1316786177785));
#1113=CARTESIAN_POINT('Origin',(-13.,14.,27.1316786177785));
#1114=CARTESIAN_POINT('',(-13.,14.,27.1316786177785));
#1115=CARTESIAN_POINT('Origin',(-13.,14.,16.7916786177785));
#1116=CARTESIAN_POINT('',(-13.,14.,16.7916786177785));
#1117=CARTESIAN_POINT('',(-13.,14.,20.8958393088892));
#1118=CARTESIAN_POINT('',(-13.,14.,16.7916786177785));
#1119=CARTESIAN_POINT('Origin',(-14.,14.,16.7916786177785));
#1120=CARTESIAN_POINT('',(-14.,14.,15.7916786177785));
#1121=CARTESIAN_POINT('Origin',(-14.,14.,16.7916786177785));
#1122=CARTESIAN_POINT('',(-14.,14.,15.7916786177785));
#1123=CARTESIAN_POINT('Origin',(-36.,14.,15.7916786177785));
#1124=CARTESIAN_POINT('',(-36.,14.,15.7916786177785));
#1125=CARTESIAN_POINT('',(-30.5,14.,15.7916786177785));
#1126=CARTESIAN_POINT('',(-36.,14.,15.7916786177785));
#1127=CARTESIAN_POINT('Origin',(-36.,14.,16.7916786177785));
#1128=CARTESIAN_POINT('',(-37.,14.,16.7916786177785));
#1129=CARTESIAN_POINT('Origin',(-36.,14.,16.7916786177785));
#1130=CARTESIAN_POINT('',(-37.,14.,16.7916786177785));
#1131=CARTESIAN_POINT('Origin',(-37.,14.,36.0116786177785));
#1132=CARTESIAN_POINT('',(-37.,14.,36.0116786177785));
#1133=CARTESIAN_POINT('',(-37.,14.,30.5058393088892));
#1134=CARTESIAN_POINT('',(-37.,14.,36.0116786177785));
#1135=CARTESIAN_POINT('Origin',(-36.,14.,36.0116786177785));
#1136=CARTESIAN_POINT('',(-36.,14.,37.0116786177785));
#1137=CARTESIAN_POINT('Origin',(-36.,14.,36.0116786177785));
#1138=CARTESIAN_POINT('',(-36.,14.,37.0116786177785));
#1139=CARTESIAN_POINT('Origin',(-23.,14.,37.0116786177785));
#1140=CARTESIAN_POINT('',(-23.,14.,37.0116786177785));
#1141=CARTESIAN_POINT('',(-24.,14.,37.0116786177785));
#1142=CARTESIAN_POINT('',(-23.,14.,37.0116786177785));
#1143=CARTESIAN_POINT('Origin',(-23.,14.,36.0116786177785));
#1144=CARTESIAN_POINT('',(-22.,14.,36.0116786177785));
#1145=CARTESIAN_POINT('Origin',(-23.,14.,36.0116786177785));
#1146=CARTESIAN_POINT('',(-22.,14.,36.0116786177785));
#1147=CARTESIAN_POINT('Origin',(-22.,14.,23.1316786177785));
#1148=CARTESIAN_POINT('',(-22.,21.,24.0658393088893));
#1149=CARTESIAN_POINT('',(-22.,14.,24.0658393088892));
#1150=CARTESIAN_POINT('Origin',(-25.,14.,25.));
#1151=CARTESIAN_POINT('Origin',(-25.,21.,25.));
#1152=UNCERTAINTY_MEASURE_WITH_UNIT(LENGTH_MEASURE(0.01),#1156,
'DISTANCE_ACCURACY_VALUE',
'Maximum model space distance between geometric entities at asserted c
onnectivities');
#1153=UNCERTAINTY_MEASURE_WITH_UNIT(LENGTH_MEASURE(0.01),#1156,
'DISTANCE_ACCURACY_VALUE',
'Maximum model space distance between geometric entities at asserted c
onnectivities');
#1154=(
GEOMETRIC_REPRESENTATION_CONTEXT(3)
GLOBAL_UNCERTAINTY_ASSIGNED_CONTEXT((#1152))
GLOBAL_UNIT_ASSIGNED_CONTEXT((#1156,#1158,#1159))
REPRESENTATION_CONTEXT('','3D')
);
#1155=(
GEOMETRIC_REPRESENTATION_CONTEXT(3)
GLOBAL_UNCERTAINTY_ASSIGNED_CONTEXT((#1153))
GLOBAL_UNIT_ASSIGNED_CONTEXT((#1156,#1158,#1159))
REPRESENTATION_CONTEXT('','3D')
);
#1156=(
LENGTH_UNIT()
NAMED_UNIT(*)
SI_UNIT(.MILLI.,.METRE.)
);
#1157=(
LENGTH_UNIT()
NAMED_UNIT(*)
SI_UNIT(.CENTI.,.METRE.)
);
#1158=(
NAMED_UNIT(*)
PLANE_ANGLE_UNIT()
SI_UNIT($,.RADIAN.)
);
#1159=(
NAMED_UNIT(*)
SI_UNIT($,.STERADIAN.)
SOLID_ANGLE_UNIT()
);
#1160=SHAPE_DEFINITION_REPRESENTATION(#1161,#1162);
#1161=PRODUCT_DEFINITION_SHAPE('',$,#1164);
#1162=SHAPE_REPRESENTATION('',(#712),#1154);
#1163=PRODUCT_DEFINITION_CONTEXT('part definition',#1168,'design');
#1164=PRODUCT_DEFINITION('250Hz-negative','250Hz-negative',#1165,#1163);
#1165=PRODUCT_DEFINITION_FORMATION('',$,#1170);
#1166=PRODUCT_RELATED_PRODUCT_CATEGORY('250Hz-negative',
'250Hz-negative',(#1170));
#1167=APPLICATION_PROTOCOL_DEFINITION('international standard',
'automotive_design',2009,#1168);
#1168=APPLICATION_CONTEXT(
'Core Data for Automotive Mechanical Design Process');
#1169=PRODUCT_CONTEXT('part definition',#1168,'mechanical');
#1170=PRODUCT('250Hz-negative','250Hz-negative',$,(#1169));
#1171=PRESENTATION_STYLE_ASSIGNMENT((#1173));
#1172=PRESENTATION_STYLE_ASSIGNMENT((#1174));
#1173=SURFACE_STYLE_USAGE(.BOTH.,#1179);
#1174=SURFACE_STYLE_USAGE(.BOTH.,#1180);
#1175=SURFACE_STYLE_RENDERING_WITH_PROPERTIES($,#1187,(#1177));
#1176=SURFACE_STYLE_RENDERING_WITH_PROPERTIES($,#1188,(#1178));
#1177=SURFACE_STYLE_TRANSPARENT(0.);
#1178=SURFACE_STYLE_TRANSPARENT(0.339999973773956);
#1179=SURFACE_SIDE_STYLE('',(#1181,#1175));
#1180=SURFACE_SIDE_STYLE('',(#1182,#1176));
#1181=SURFACE_STYLE_FILL_AREA(#1183);
#1182=SURFACE_STYLE_FILL_AREA(#1184);
#1183=FILL_AREA_STYLE('',(#1185));
#1184=FILL_AREA_STYLE('',(#1186));
#1185=FILL_AREA_STYLE_COLOUR('',#1187);
#1186=FILL_AREA_STYLE_COLOUR('',#1188);
#1187=COLOUR_RGB('',0.749019607843137,0.749019607843137,0.749019607843137);
#1188=COLOUR_RGB('',0.925490196078431,0.945098039215686,0.937254901960784);
ENDSEC;
END-ISO-10303-21;
