ISO-10303-21;
HEADER;
/* Generated by software containing ST-Developer
 * from STEP Tools, Inc. (www.steptools.com) 
 */

FILE_DESCRIPTION(
/* description */ (''),
/* implementation_level */ '2;1');

FILE_NAME(
/* name */ '2x2 250Hz-front-air.stp',
/* time_stamp */ '2026-06-04T20:46:36-04:00',
/* author */ ('brand'),
/* organization */ (''),
/* preprocessor_version */ 'ST-DEVELOPER v20.1',
/* originating_system */ 'Autodesk Inventor 2027',
/* authorisation */ '');

FILE_SCHEMA (('AUTOMOTIVE_DESIGN { 1 0 10303 214 3 1 1 }'));
ENDSEC;

DATA;
#10=MECHANICAL_DESIGN_GEOMETRIC_PRESENTATION_REPRESENTATION('',(#17),#362);
#11=ITEM_DEFINED_TRANSFORMATION($,$,#238,#250);
#12=(
REPRESENTATION_RELATIONSHIP($,$,#377,#376)
REPRESENTATION_RELATIONSHIP_WITH_TRANSFORMATION(#11)
SHAPE_REPRESENTATION_RELATIONSHIP()
);
#13=CONTEXT_DEPENDENT_SHAPE_REPRESENTATION(#12,#375);
#14=NEXT_ASSEMBLY_USAGE_OCCURRENCE('Solid5:1','Solid5:1','Solid5:1',#379,
#380,'Solid5:1');
#15=SHAPE_REPRESENTATION_RELATIONSHIP('SRR','None',#377,#16);
#16=ADVANCED_BREP_SHAPE_REPRESENTATION('',(#18),#361);
#17=STYLED_ITEM('',(#216),#18);
#18=MANIFOLD_SOLID_BREP('Solid5',#201);
#19=FACE_BOUND('',#36,.T.);
#20=FACE_OUTER_BOUND('',#31,.T.);
#21=FACE_OUTER_BOUND('',#32,.T.);
#22=FACE_OUTER_BOUND('',#33,.T.);
#23=FACE_OUTER_BOUND('',#34,.T.);
#24=FACE_OUTER_BOUND('',#35,.T.);
#25=FACE_OUTER_BOUND('',#37,.T.);
#26=FACE_OUTER_BOUND('',#38,.T.);
#27=FACE_OUTER_BOUND('',#39,.T.);
#28=FACE_OUTER_BOUND('',#40,.T.);
#29=FACE_OUTER_BOUND('',#41,.T.);
#30=FACE_OUTER_BOUND('',#42,.T.);
#31=EDGE_LOOP('',(#131,#132,#133,#134));
#32=EDGE_LOOP('',(#135,#136,#137,#138));
#33=EDGE_LOOP('',(#139,#140,#141,#142));
#34=EDGE_LOOP('',(#143,#144,#145,#146));
#35=EDGE_LOOP('',(#147,#148,#149,#150));
#36=EDGE_LOOP('',(#151,#152,#153,#154));
#37=EDGE_LOOP('',(#155,#156,#157,#158));
#38=EDGE_LOOP('',(#159,#160,#161,#162));
#39=EDGE_LOOP('',(#163,#164,#165,#166));
#40=EDGE_LOOP('',(#167,#168,#169,#170));
#41=EDGE_LOOP('',(#171,#172,#173,#174));
#42=EDGE_LOOP('',(#175,#176,#177,#178));
#43=LINE('',#308,#67);
#44=LINE('',#310,#68);
#45=LINE('',#312,#69);
#46=LINE('',#313,#70);
#47=LINE('',#316,#71);
#48=LINE('',#318,#72);
#49=LINE('',#319,#73);
#50=LINE('',#322,#74);
#51=LINE('',#324,#75);
#52=LINE('',#325,#76);
#53=LINE('',#327,#77);
#54=LINE('',#328,#78);
#55=LINE('',#332,#79);
#56=LINE('',#334,#80);
#57=LINE('',#336,#81);
#58=LINE('',#337,#82);
#59=LINE('',#340,#83);
#60=LINE('',#342,#84);
#61=LINE('',#343,#85);
#62=LINE('',#346,#86);
#63=LINE('',#347,#87);
#64=LINE('',#350,#88);
#65=LINE('',#351,#89);
#66=LINE('',#353,#90);
#67=VECTOR('',#257,0.393700787401575);
#68=VECTOR('',#258,0.393700787401575);
#69=VECTOR('',#259,0.393700787401575);
#70=VECTOR('',#260,0.393700787401575);
#71=VECTOR('',#263,0.393700787401575);
#72=VECTOR('',#264,0.393700787401575);
#73=VECTOR('',#265,0.393700787401575);
#74=VECTOR('',#268,0.393700787401575);
#75=VECTOR('',#269,0.393700787401575);
#76=VECTOR('',#270,0.393700787401575);
#77=VECTOR('',#273,0.393700787401575);
#78=VECTOR('',#274,0.393700787401575);
#79=VECTOR('',#277,0.393700787401575);
#80=VECTOR('',#278,0.393700787401575);
#81=VECTOR('',#279,0.393700787401575);
#82=VECTOR('',#280,0.393700787401575);
#83=VECTOR('',#283,0.393700787401575);
#84=VECTOR('',#284,0.393700787401575);
#85=VECTOR('',#285,0.393700787401575);
#86=VECTOR('',#288,0.393700787401575);
#87=VECTOR('',#289,0.393700787401575);
#88=VECTOR('',#292,0.393700787401575);
#89=VECTOR('',#293,0.393700787401575);
#90=VECTOR('',#296,0.393700787401575);
#91=VERTEX_POINT('',#306);
#92=VERTEX_POINT('',#307);
#93=VERTEX_POINT('',#309);
#94=VERTEX_POINT('',#311);
#95=VERTEX_POINT('',#315);
#96=VERTEX_POINT('',#317);
#97=VERTEX_POINT('',#321);
#98=VERTEX_POINT('',#323);
#99=VERTEX_POINT('',#330);
#100=VERTEX_POINT('',#331);
#101=VERTEX_POINT('',#333);
#102=VERTEX_POINT('',#335);
#103=VERTEX_POINT('',#339);
#104=VERTEX_POINT('',#341);
#105=VERTEX_POINT('',#345);
#106=VERTEX_POINT('',#349);
#107=EDGE_CURVE('',#91,#92,#43,.T.);
#108=EDGE_CURVE('',#91,#93,#44,.T.);
#109=EDGE_CURVE('',#94,#93,#45,.T.);
#110=EDGE_CURVE('',#92,#94,#46,.T.);
#111=EDGE_CURVE('',#92,#95,#47,.T.);
#112=EDGE_CURVE('',#96,#94,#48,.T.);
#113=EDGE_CURVE('',#95,#96,#49,.T.);
#114=EDGE_CURVE('',#95,#97,#50,.T.);
#115=EDGE_CURVE('',#98,#96,#51,.T.);
#116=EDGE_CURVE('',#97,#98,#52,.T.);
#117=EDGE_CURVE('',#97,#91,#53,.T.);
#118=EDGE_CURVE('',#93,#98,#54,.T.);
#119=EDGE_CURVE('',#99,#100,#55,.T.);
#120=EDGE_CURVE('',#100,#101,#56,.T.);
#121=EDGE_CURVE('',#101,#102,#57,.T.);
#122=EDGE_CURVE('',#102,#99,#58,.T.);
#123=EDGE_CURVE('',#103,#101,#59,.T.);
#124=EDGE_CURVE('',#104,#103,#60,.T.);
#125=EDGE_CURVE('',#102,#104,#61,.T.);
#126=EDGE_CURVE('',#105,#104,#62,.T.);
#127=EDGE_CURVE('',#99,#105,#63,.T.);
#128=EDGE_CURVE('',#106,#105,#64,.T.);
#129=EDGE_CURVE('',#100,#106,#65,.T.);
#130=EDGE_CURVE('',#103,#106,#66,.T.);
#131=ORIENTED_EDGE('',*,*,#107,.F.);
#132=ORIENTED_EDGE('',*,*,#108,.T.);
#133=ORIENTED_EDGE('',*,*,#109,.F.);
#134=ORIENTED_EDGE('',*,*,#110,.F.);
#135=ORIENTED_EDGE('',*,*,#111,.F.);
#136=ORIENTED_EDGE('',*,*,#110,.T.);
#137=ORIENTED_EDGE('',*,*,#112,.F.);
#138=ORIENTED_EDGE('',*,*,#113,.F.);
#139=ORIENTED_EDGE('',*,*,#114,.F.);
#140=ORIENTED_EDGE('',*,*,#113,.T.);
#141=ORIENTED_EDGE('',*,*,#115,.F.);
#142=ORIENTED_EDGE('',*,*,#116,.F.);
#143=ORIENTED_EDGE('',*,*,#117,.F.);
#144=ORIENTED_EDGE('',*,*,#116,.T.);
#145=ORIENTED_EDGE('',*,*,#118,.F.);
#146=ORIENTED_EDGE('',*,*,#108,.F.);
#147=ORIENTED_EDGE('',*,*,#119,.T.);
#148=ORIENTED_EDGE('',*,*,#120,.T.);
#149=ORIENTED_EDGE('',*,*,#121,.T.);
#150=ORIENTED_EDGE('',*,*,#122,.T.);
#151=ORIENTED_EDGE('',*,*,#118,.T.);
#152=ORIENTED_EDGE('',*,*,#115,.T.);
#153=ORIENTED_EDGE('',*,*,#112,.T.);
#154=ORIENTED_EDGE('',*,*,#109,.T.);
#155=ORIENTED_EDGE('',*,*,#123,.F.);
#156=ORIENTED_EDGE('',*,*,#124,.F.);
#157=ORIENTED_EDGE('',*,*,#125,.F.);
#158=ORIENTED_EDGE('',*,*,#121,.F.);
#159=ORIENTED_EDGE('',*,*,#125,.T.);
#160=ORIENTED_EDGE('',*,*,#126,.F.);
#161=ORIENTED_EDGE('',*,*,#127,.F.);
#162=ORIENTED_EDGE('',*,*,#122,.F.);
#163=ORIENTED_EDGE('',*,*,#127,.T.);
#164=ORIENTED_EDGE('',*,*,#128,.F.);
#165=ORIENTED_EDGE('',*,*,#129,.F.);
#166=ORIENTED_EDGE('',*,*,#119,.F.);
#167=ORIENTED_EDGE('',*,*,#129,.T.);
#168=ORIENTED_EDGE('',*,*,#130,.F.);
#169=ORIENTED_EDGE('',*,*,#123,.T.);
#170=ORIENTED_EDGE('',*,*,#120,.F.);
#171=ORIENTED_EDGE('',*,*,#130,.T.);
#172=ORIENTED_EDGE('',*,*,#128,.T.);
#173=ORIENTED_EDGE('',*,*,#126,.T.);
#174=ORIENTED_EDGE('',*,*,#124,.T.);
#175=ORIENTED_EDGE('',*,*,#107,.T.);
#176=ORIENTED_EDGE('',*,*,#111,.T.);
#177=ORIENTED_EDGE('',*,*,#114,.T.);
#178=ORIENTED_EDGE('',*,*,#117,.T.);
#179=PLANE('',#239);
#180=PLANE('',#240);
#181=PLANE('',#241);
#182=PLANE('',#242);
#183=PLANE('',#243);
#184=PLANE('',#244);
#185=PLANE('',#245);
#186=PLANE('',#246);
#187=PLANE('',#247);
#188=PLANE('',#248);
#189=PLANE('',#249);
#190=ADVANCED_FACE('',(#20),#179,.T.);
#191=ADVANCED_FACE('',(#21),#180,.T.);
#192=ADVANCED_FACE('',(#22),#181,.T.);
#193=ADVANCED_FACE('',(#23),#182,.T.);
#194=ADVANCED_FACE('',(#24,#19),#183,.T.);
#195=ADVANCED_FACE('',(#25),#184,.T.);
#196=ADVANCED_FACE('',(#26),#185,.T.);
#197=ADVANCED_FACE('',(#27),#186,.T.);
#198=ADVANCED_FACE('',(#28),#187,.T.);
#199=ADVANCED_FACE('',(#29),#188,.T.);
#200=ADVANCED_FACE('',(#30),#189,.F.);
#201=CLOSED_SHELL('',(#190,#191,#192,#193,#194,#195,#196,#197,#198,#199,
#200));
#202=DERIVED_UNIT_ELEMENT(#204,1.);
#203=DERIVED_UNIT_ELEMENT(#367,-3.);
#204=(
CONVERSION_BASED_UNIT('gram',#206)
MASS_UNIT()
NAMED_UNIT(#364)
);
#205=(
MASS_UNIT()
NAMED_UNIT(*)
SI_UNIT(.KILO.,.GRAM.)
);
#206=MASS_MEASURE_WITH_UNIT(MASS_MEASURE(0.001),#205);
#207=DERIVED_UNIT((#202,#203));
#208=MEASURE_REPRESENTATION_ITEM('density measure',
POSITIVE_RATIO_MEASURE(1.),#207);
#209=PROPERTY_DEFINITION_REPRESENTATION(#214,#211);
#210=PROPERTY_DEFINITION_REPRESENTATION(#215,#212);
#211=REPRESENTATION('material name',(#213),#361);
#212=REPRESENTATION('density',(#208),#361);
#213=DESCRIPTIVE_REPRESENTATION_ITEM('Generic','Generic');
#214=PROPERTY_DEFINITION('material property','material name',#380);
#215=PROPERTY_DEFINITION('material property','density of part',#380);
#216=PRESENTATION_STYLE_ASSIGNMENT((#217));
#217=SURFACE_STYLE_USAGE(.BOTH.,#220);
#218=SURFACE_STYLE_RENDERING_WITH_PROPERTIES($,#224,(#219));
#219=SURFACE_STYLE_TRANSPARENT(0.);
#220=SURFACE_SIDE_STYLE('',(#221,#218));
#221=SURFACE_STYLE_FILL_AREA(#222);
#222=FILL_AREA_STYLE('',(#223));
#223=FILL_AREA_STYLE_COLOUR('',#224);
#224=COLOUR_RGB('',0.749019607843137,0.749019607843137,0.749019607843137);
#225=DATE_TIME_ROLE('creation_date');
#226=DATE_TIME_ROLE('creation_date');
#227=APPLIED_DATE_AND_TIME_ASSIGNMENT(#229,#225,(#379));
#228=APPLIED_DATE_AND_TIME_ASSIGNMENT(#230,#226,(#380));
#229=DATE_AND_TIME(#231,#233);
#230=DATE_AND_TIME(#232,#234);
#231=CALENDAR_DATE(2026,4,6);
#232=CALENDAR_DATE(2026,4,6);
#233=LOCAL_TIME(0,0,0.,#235);
#234=LOCAL_TIME(0,0,0.,#236);
#235=COORDINATED_UNIVERSAL_TIME_OFFSET(0,0,.BEHIND.);
#236=COORDINATED_UNIVERSAL_TIME_OFFSET(0,0,.BEHIND.);
#237=AXIS2_PLACEMENT_3D('',#303,#251,#252);
#238=AXIS2_PLACEMENT_3D('',#304,#253,#254);
#239=AXIS2_PLACEMENT_3D('',#305,#255,#256);
#240=AXIS2_PLACEMENT_3D('',#314,#261,#262);
#241=AXIS2_PLACEMENT_3D('',#320,#266,#267);
#242=AXIS2_PLACEMENT_3D('',#326,#271,#272);
#243=AXIS2_PLACEMENT_3D('',#329,#275,#276);
#244=AXIS2_PLACEMENT_3D('',#338,#281,#282);
#245=AXIS2_PLACEMENT_3D('',#344,#286,#287);
#246=AXIS2_PLACEMENT_3D('',#348,#290,#291);
#247=AXIS2_PLACEMENT_3D('',#352,#294,#295);
#248=AXIS2_PLACEMENT_3D('',#354,#297,#298);
#249=AXIS2_PLACEMENT_3D('',#355,#299,#300);
#250=AXIS2_PLACEMENT_3D('',#356,#301,#302);
#251=DIRECTION('axis',(0.,0.,1.));
#252=DIRECTION('refdir',(1.,0.,0.));
#253=DIRECTION('axis',(0.,0.,1.));
#254=DIRECTION('refdir',(1.,0.,0.));
#255=DIRECTION('center_axis',(0.,0.,1.));
#256=DIRECTION('ref_axis',(-1.,0.,0.));
#257=DIRECTION('',(1.,0.,0.));
#258=DIRECTION('',(0.,-1.,0.));
#259=DIRECTION('',(-1.,0.,0.));
#260=DIRECTION('',(0.,-1.,0.));
#261=DIRECTION('center_axis',(-1.,0.,0.));
#262=DIRECTION('ref_axis',(0.,0.,-1.));
#263=DIRECTION('',(0.,0.,1.));
#264=DIRECTION('',(0.,0.,-1.));
#265=DIRECTION('',(0.,-1.,0.));
#266=DIRECTION('center_axis',(0.,0.,-1.));
#267=DIRECTION('ref_axis',(1.,0.,0.));
#268=DIRECTION('',(-1.,0.,0.));
#269=DIRECTION('',(1.,0.,0.));
#270=DIRECTION('',(0.,-1.,0.));
#271=DIRECTION('center_axis',(1.,0.,0.));
#272=DIRECTION('ref_axis',(0.,0.,1.));
#273=DIRECTION('',(0.,0.,-1.));
#274=DIRECTION('',(0.,0.,1.));
#275=DIRECTION('center_axis',(0.,-1.,0.));
#276=DIRECTION('ref_axis',(0.,0.,-1.));
#277=DIRECTION('',(-1.,0.,0.));
#278=DIRECTION('',(0.,0.,-1.));
#279=DIRECTION('',(1.,0.,0.));
#280=DIRECTION('',(0.,0.,1.));
#281=DIRECTION('center_axis',(-1.09651656753102E-16,0.,-1.));
#282=DIRECTION('ref_axis',(-1.,0.,1.09651656753102E-16));
#283=DIRECTION('',(0.,-1.,0.));
#284=DIRECTION('',(-1.,0.,1.09651656753102E-16));
#285=DIRECTION('',(0.,1.,0.));
#286=DIRECTION('center_axis',(1.,0.,-4.38606627012407E-16));
#287=DIRECTION('ref_axis',(-4.38606627012407E-16,0.,-1.));
#288=DIRECTION('',(-4.38606627012407E-16,0.,-1.));
#289=DIRECTION('',(0.,1.,0.));
#290=DIRECTION('center_axis',(2.46716227694479E-16,0.,1.));
#291=DIRECTION('ref_axis',(1.,0.,-2.46716227694479E-16));
#292=DIRECTION('',(1.,0.,-2.46716227694479E-16));
#293=DIRECTION('',(0.,1.,0.));
#294=DIRECTION('center_axis',(-1.,0.,3.28954970259306E-16));
#295=DIRECTION('ref_axis',(3.28954970259306E-16,0.,1.));
#296=DIRECTION('',(3.28954970259306E-16,0.,1.));
#297=DIRECTION('center_axis',(0.,1.,0.));
#298=DIRECTION('ref_axis',(0.,0.,1.));
#299=DIRECTION('center_axis',(0.,1.,0.));
#300=DIRECTION('ref_axis',(0.,0.,1.));
#301=DIRECTION('',(0.,0.,1.));
#302=DIRECTION('',(1.,0.,0.));
#303=CARTESIAN_POINT('',(0.,0.,0.));
#304=CARTESIAN_POINT('',(0.,0.,0.));
#305=CARTESIAN_POINT('Origin',(2.32283464566929,0.826771653543307,-0.118110236220473));
#306=CARTESIAN_POINT('',(-2.08661417322835,0.826771653543307,-0.118110236220473));
#307=CARTESIAN_POINT('',(2.32283464566929,0.826771653543307,-0.118110236220473));
#308=CARTESIAN_POINT('',(1.22047244094488,0.826771653543307,-0.118110236220473));
#309=CARTESIAN_POINT('',(-2.08661417322835,0.413385826771654,-0.118110236220473));
#310=CARTESIAN_POINT('',(-2.08661417322835,0.826771653543307,-0.118110236220473));
#311=CARTESIAN_POINT('',(2.32283464566929,0.413385826771654,-0.118110236220473));
#312=CARTESIAN_POINT('',(2.32283464566929,0.413385826771654,-0.118110236220473));
#313=CARTESIAN_POINT('',(2.32283464566929,0.826771653543307,-0.118110236220473));
#314=CARTESIAN_POINT('Origin',(2.32283464566929,0.826771653543307,4.29133858267717));
#315=CARTESIAN_POINT('',(2.32283464566929,0.826771653543307,4.29133858267717));
#316=CARTESIAN_POINT('',(2.32283464566929,0.826771653543307,3.18897637795276));
#317=CARTESIAN_POINT('',(2.32283464566929,0.413385826771654,4.29133858267717));
#318=CARTESIAN_POINT('',(2.32283464566929,0.413385826771654,4.29133858267717));
#319=CARTESIAN_POINT('',(2.32283464566929,0.826771653543307,4.29133858267717));
#320=CARTESIAN_POINT('Origin',(-2.08661417322835,0.826771653543307,4.29133858267717));
#321=CARTESIAN_POINT('',(-2.08661417322835,0.826771653543307,4.29133858267717));
#322=CARTESIAN_POINT('',(-0.984251968503937,0.826771653543307,4.29133858267717));
#323=CARTESIAN_POINT('',(-2.08661417322834,0.413385826771654,4.29133858267717));
#324=CARTESIAN_POINT('',(-2.08661417322835,0.413385826771654,4.29133858267717));
#325=CARTESIAN_POINT('',(-2.08661417322835,0.826771653543307,4.29133858267717));
#326=CARTESIAN_POINT('Origin',(-2.08661417322835,0.826771653543307,-0.118110236220473));
#327=CARTESIAN_POINT('',(-2.08661417322835,0.826771653543307,0.984251968503937));
#328=CARTESIAN_POINT('',(-2.08661417322835,0.413385826771654,-0.118110236220473));
#329=CARTESIAN_POINT('Origin',(0.118110236220472,0.413385826771654,2.08661417322835));
#330=CARTESIAN_POINT('',(3.30708661417323,0.413385826771654,5.2755905511811));
#331=CARTESIAN_POINT('',(-3.07086614173228,0.413385826771654,5.2755905511811));
#332=CARTESIAN_POINT('',(3.30708661417322,0.413385826771654,5.2755905511811));
#333=CARTESIAN_POINT('',(-3.07086614173228,0.413385826771654,-1.10236220472441));
#334=CARTESIAN_POINT('',(-3.07086614173228,0.413385826771654,5.2755905511811));
#335=CARTESIAN_POINT('',(3.30708661417323,0.413385826771654,-1.10236220472441));
#336=CARTESIAN_POINT('',(-3.07086614173228,0.413385826771654,-1.10236220472441));
#337=CARTESIAN_POINT('',(3.30708661417323,0.413385826771654,-1.10236220472441));
#338=CARTESIAN_POINT('Origin',(3.30708661417323,0.826771653543307,-1.10236220472441));
#339=CARTESIAN_POINT('',(-3.07086614173228,8.7007874015748,-1.10236220472441));
#340=CARTESIAN_POINT('',(-3.07086614173228,0.826771653543307,-1.10236220472441));
#341=CARTESIAN_POINT('',(3.30708661417323,8.7007874015748,-1.10236220472441));
#342=CARTESIAN_POINT('',(3.30708661417323,8.7007874015748,-1.10236220472441));
#343=CARTESIAN_POINT('',(3.30708661417323,0.826771653543307,-1.10236220472441));
#344=CARTESIAN_POINT('Origin',(3.30708661417323,0.826771653543307,5.2755905511811));
#345=CARTESIAN_POINT('',(3.30708661417323,8.7007874015748,5.2755905511811));
#346=CARTESIAN_POINT('',(3.30708661417323,8.7007874015748,5.2755905511811));
#347=CARTESIAN_POINT('',(3.30708661417323,0.826771653543307,5.2755905511811));
#348=CARTESIAN_POINT('Origin',(-3.07086614173228,0.826771653543307,5.2755905511811));
#349=CARTESIAN_POINT('',(-3.07086614173228,8.7007874015748,5.2755905511811));
#350=CARTESIAN_POINT('',(-3.07086614173228,8.7007874015748,5.2755905511811));
#351=CARTESIAN_POINT('',(-3.07086614173228,0.826771653543307,5.2755905511811));
#352=CARTESIAN_POINT('Origin',(-3.07086614173228,0.826771653543307,-1.10236220472441));
#353=CARTESIAN_POINT('',(-3.07086614173228,8.7007874015748,-1.10236220472441));
#354=CARTESIAN_POINT('Origin',(0.118110236220472,8.7007874015748,2.08661417322835));
#355=CARTESIAN_POINT('Origin',(0.118110236220473,0.826771653543307,2.08661417322835));
#356=CARTESIAN_POINT('',(0.,0.,0.));
#357=UNCERTAINTY_MEASURE_WITH_UNIT(LENGTH_MEASURE(0.000393700787401575),
#365,'DISTANCE_ACCURACY_VALUE',
'Maximum model space distance between geometric entities at asserted c
onnectivities');
#358=UNCERTAINTY_MEASURE_WITH_UNIT(LENGTH_MEASURE(0.000393700787401575),
#365,'DISTANCE_ACCURACY_VALUE',
'Maximum model space distance between geometric entities at asserted c
onnectivities');
#359=UNCERTAINTY_MEASURE_WITH_UNIT(LENGTH_MEASURE(0.000393700787401575),
#365,'DISTANCE_ACCURACY_VALUE',
'Maximum model space distance between geometric entities at asserted c
onnectivities');
#360=(
GEOMETRIC_REPRESENTATION_CONTEXT(3)
GLOBAL_UNCERTAINTY_ASSIGNED_CONTEXT((#357))
GLOBAL_UNIT_ASSIGNED_CONTEXT((#365,#369,#370))
REPRESENTATION_CONTEXT('','3D')
);
#361=(
GEOMETRIC_REPRESENTATION_CONTEXT(3)
GLOBAL_UNCERTAINTY_ASSIGNED_CONTEXT((#358))
GLOBAL_UNIT_ASSIGNED_CONTEXT((#365,#369,#370))
REPRESENTATION_CONTEXT('','3D')
);
#362=(
GEOMETRIC_REPRESENTATION_CONTEXT(3)
GLOBAL_UNCERTAINTY_ASSIGNED_CONTEXT((#359))
GLOBAL_UNIT_ASSIGNED_CONTEXT((#365,#369,#370))
REPRESENTATION_CONTEXT('','3D')
);
#363=DIMENSIONAL_EXPONENTS(1.,0.,0.,0.,0.,0.,0.);
#364=DIMENSIONAL_EXPONENTS(0.,1.,0.,0.,0.,0.,0.);
#365=(
CONVERSION_BASED_UNIT('inch',#368)
LENGTH_UNIT()
NAMED_UNIT(#363)
);
#366=(
LENGTH_UNIT()
NAMED_UNIT(*)
SI_UNIT(.MILLI.,.METRE.)
);
#367=(
LENGTH_UNIT()
NAMED_UNIT(*)
SI_UNIT(.CENTI.,.METRE.)
);
#368=LENGTH_MEASURE_WITH_UNIT(LENGTH_MEASURE(25.4),#366);
#369=(
NAMED_UNIT(*)
PLANE_ANGLE_UNIT()
SI_UNIT($,.RADIAN.)
);
#370=(
NAMED_UNIT(*)
SI_UNIT($,.STERADIAN.)
SOLID_ANGLE_UNIT()
);
#371=SHAPE_DEFINITION_REPRESENTATION(#373,#376);
#372=SHAPE_DEFINITION_REPRESENTATION(#374,#377);
#373=PRODUCT_DEFINITION_SHAPE('',$,#379);
#374=PRODUCT_DEFINITION_SHAPE('',$,#380);
#375=PRODUCT_DEFINITION_SHAPE($,$,#14);
#376=SHAPE_REPRESENTATION('',(#237,#250),#360);
#377=SHAPE_REPRESENTATION('',(#238),#361);
#378=PRODUCT_DEFINITION_CONTEXT('part definition',#386,'design');
#379=PRODUCT_DEFINITION('2x2 250Hz-front-air','2x2 250Hz-front-air',#381,
#378);
#380=PRODUCT_DEFINITION('Solid5','Solid5',#382,#378);
#381=PRODUCT_DEFINITION_FORMATION('',$,#388);
#382=PRODUCT_DEFINITION_FORMATION('',$,#389);
#383=PRODUCT_RELATED_PRODUCT_CATEGORY('2x2 250Hz-front-air',
'2x2 250Hz-front-air',(#388));
#384=PRODUCT_RELATED_PRODUCT_CATEGORY('Solid5','Solid5',(#389));
#385=APPLICATION_PROTOCOL_DEFINITION('international standard',
'automotive_design',2009,#386);
#386=APPLICATION_CONTEXT(
'Core Data for Automotive Mechanical Design Process');
#387=PRODUCT_CONTEXT('part definition',#386,'mechanical');
#388=PRODUCT('2x2 250Hz-front-air','2x2 250Hz-front-air',$,(#387));
#389=PRODUCT('Solid5','Solid5',$,(#387));
ENDSEC;
END-ISO-10303-21;
